<svg width="596" height="219" viewBox="0 0 596 219" fill="none" xmlns="http://www.w3.org/2000/svg">
<g clip-path="url(#clip0_1_11)">
<rect width="595.07" height="218.25" fill="#FDFDFD"/>
<rect width="597" height="219" fill="url(#paint0_linear_1_11)"/>
<path d="M411.668 80.8778C410.44 80.8734 409.229 81.1541 408.128 81.6978C407.783 81.1227 407.517 80.5038 407.338 79.8578C407.232 79.3515 407.209 78.8315 407.268 78.3178C407.386 77.7553 407.54 77.2008 407.728 76.6578C407.728 76.5878 407.648 76.2478 406.858 76.2478C406.068 76.2478 405.398 76.3978 405.318 76.5978C405.18 76.9793 405.07 77.3703 404.988 77.7678C404.34 79.3708 403.54 80.9078 402.598 82.3578C402.355 81.9389 402.174 81.4878 402.058 81.0178C401.952 80.5115 401.929 79.9915 401.988 79.4778C402.105 78.9149 402.258 78.3604 402.448 77.8178C402.448 77.7378 402.368 77.4078 401.578 77.3978C400.788 77.3878 400.118 77.5478 400.038 77.7578C399.958 77.9678 399.878 78.4478 399.708 78.9178C399.538 79.3878 397.638 83.6378 397.138 84.7378C396.888 85.3078 396.658 85.7378 396.508 86.0578V86.1178L396.298 86.5278C396.188 86.7278 396.068 86.9078 396.018 86.9078C395.912 86.5081 395.912 86.0875 396.018 85.6878C396.308 84.2178 397.018 81.9178 397.018 81.8378C397.018 81.7578 397.148 81.3978 396.578 81.1878C396.445 81.1227 396.296 81.1012 396.15 81.1263C396.005 81.1515 395.871 81.222 395.768 81.3278C395.718 81.3278 395.678 81.4478 395.678 81.4478C395.678 81.4478 396.298 78.8578 394.498 78.8578C393.368 78.8578 391.818 80.0978 391.038 81.2078L388.418 82.6478L387.158 83.3378L387.068 83.2478C384.888 80.9078 380.848 79.2478 381.018 76.1278C381.078 74.9878 381.478 71.9878 388.778 68.3478C394.778 65.3478 399.568 66.2078 400.388 68.0278C401.578 70.6278 397.828 75.4478 391.618 76.1478C390.931 76.2871 390.222 76.2696 389.544 76.0964C388.865 75.9232 388.234 75.599 387.698 75.1478C387.368 74.7878 387.318 74.7678 387.198 74.8378C387.078 74.9078 387.128 75.2678 387.198 75.4578C387.668 76.299 388.452 76.9206 389.378 77.1878C391.82 77.7161 394.367 77.4642 396.658 76.4678C400.418 75.0078 403.358 70.9678 402.488 67.5778C401.618 64.1878 395.918 62.9978 390.488 64.9178C387.107 66.0624 383.982 67.8559 381.288 70.1978C378.288 72.9878 377.848 75.4078 378.038 76.4178C378.728 80.0178 383.688 82.3578 385.668 84.0878L385.398 84.2378C384.398 84.7278 380.628 86.7078 379.688 88.7978C378.618 91.1678 379.858 92.8678 380.688 93.0978C381.925 93.3915 383.222 93.2921 384.4 92.8135C385.578 92.3349 386.577 91.501 387.258 90.4278C387.84 89.539 388.197 88.5225 388.3 87.4654C388.403 86.4082 388.248 85.3419 387.848 84.3578L388.628 83.8978C389.128 83.5978 389.628 83.3178 390.058 83.0978C389.766 83.9329 389.591 84.8046 389.538 85.6878C389.444 87.0464 389.861 88.391 390.708 89.4578C390.837 89.5688 390.986 89.6533 391.147 89.7065C391.308 89.7597 391.479 89.7805 391.648 89.7678C392.488 89.7678 392.868 89.0678 393.288 88.2378C393.798 87.2378 394.288 86.0478 394.288 86.0478C394.288 86.0478 393.708 89.2278 395.288 89.2278C395.858 89.2278 396.438 88.4878 396.688 88.1078L396.738 88.0378C396.763 87.985 396.793 87.9348 396.828 87.8878C397.058 87.4878 397.568 86.5878 398.338 85.0778C399.338 83.1378 400.268 80.7178 400.268 80.7178C400.362 81.2484 400.489 81.7727 400.648 82.2878C400.877 82.915 401.148 83.5263 401.458 84.1178L401.088 84.6178C400.898 84.8578 400.698 85.1178 400.478 85.3778C399.818 86.1034 399.207 86.8717 398.648 87.6778C398.563 87.8127 398.533 87.9754 398.564 88.1319C398.596 88.2883 398.687 88.4266 398.818 88.5178C399.109 88.6713 399.442 88.7274 399.768 88.6778C400.263 88.6461 400.749 88.5346 401.208 88.3478C401.646 88.1886 402.06 87.9699 402.438 87.6978C402.829 87.4274 403.144 87.0609 403.352 86.6335C403.561 86.2062 403.656 85.7324 403.628 85.2578C403.582 84.6653 403.43 84.086 403.178 83.5478C403.248 83.4478 403.308 83.3478 403.388 83.2478C404.177 82.06 404.892 80.8243 405.528 79.5478C405.615 80.0822 405.739 80.61 405.898 81.1278C406.091 81.6683 406.325 82.1932 406.598 82.6978C405.694 83.4047 404.985 84.3305 404.538 85.3878C404.088 86.6778 404.438 87.2678 405.108 87.3878C405.455 87.4024 405.799 87.3266 406.108 87.1678C406.581 87.0117 407.026 86.7822 407.428 86.4878C407.848 86.2351 408.2 85.8834 408.453 85.4632C408.706 85.0431 408.852 84.5674 408.878 84.0778C408.844 83.5876 408.736 83.1055 408.558 82.6478C409.762 82.1766 411.069 82.0284 412.348 82.2178C415.738 82.6178 416.408 84.7378 416.278 85.6278C416.222 85.9505 416.096 86.2572 415.91 86.5266C415.723 86.796 415.48 87.0216 415.198 87.1878C414.958 87.3378 414.878 87.3878 414.898 87.4878C414.918 87.5878 415.048 87.6378 415.248 87.6178C415.757 87.4525 416.204 87.1383 416.532 86.7157C416.86 86.2931 417.054 85.7817 417.088 85.2478C417.198 83.1578 415.198 80.8578 411.668 80.8878V80.8778ZM385.468 89.7078C384.338 90.9378 382.768 91.3978 382.088 91.0078C381.408 90.6178 381.648 88.7778 383.038 87.4778C383.852 86.7287 384.736 86.059 385.678 85.4778L386.378 85.0578H386.458L386.628 84.9478C386.875 85.7759 386.898 86.6548 386.694 87.4946C386.49 88.3344 386.067 89.1051 385.468 89.7278V89.7078ZM393.678 84.1278C393.278 85.1278 392.458 87.5278 391.958 87.3978C391.458 87.2678 391.268 85.3978 391.878 83.5978C392.185 82.7264 392.634 81.912 393.208 81.1878C393.818 80.4978 394.498 80.2678 394.668 80.5478C394.838 80.8278 393.918 83.5478 393.668 84.1678L393.678 84.1278ZM400.448 87.3678C400.278 87.4578 400.128 87.5078 400.048 87.4678C399.968 87.4278 400.128 87.3278 400.128 87.3278C400.128 87.3278 400.968 86.4078 401.308 85.9978C401.498 85.7578 401.728 85.4678 401.968 85.1478V85.2378C401.906 85.6892 401.735 86.1188 401.47 86.4897C401.205 86.8607 400.855 87.162 400.448 87.3678ZM405.668 86.1878C405.548 86.0978 405.568 85.8178 405.978 84.9278C406.258 84.3536 406.653 83.843 407.138 83.4278C407.212 83.6365 407.249 83.8564 407.248 84.0778C407.254 84.5545 407.103 85.0201 406.817 85.4017C406.531 85.7834 406.127 86.0598 405.668 86.1878Z" fill="#CE6899"/>
<path d="M398.1 29C392.767 29 389.417 31.6667 388.05 37C390.05 34.3333 392.383 33.3333 395.05 34C396.58 34.38 397.67 35.49 398.88 36.72C400.88 38.72 403.13 41.04 408.12 41.04C413.453 41.04 416.803 38.3733 418.17 33.04C416.17 35.7067 413.837 36.7067 411.17 36.04C409.6 35.65 408.6 34.54 407.34 33.28C405.37 31.28 403.09 29 398.1 29ZM388.05 41.06C382.717 41.06 379.367 43.7267 378 49.06C380 46.3933 382.333 45.3933 385 46.06C386.509 46.5901 387.839 47.5324 388.84 48.78C390.84 50.78 393.09 53.09 398.07 53.09C403.443 53.09 406.797 50.4233 408.13 45.09C406.13 47.7567 403.797 48.7567 401.13 48.09C399.628 47.5526 398.302 46.6115 397.3 45.37C395.32 43.38 393.03 41.06 388.05 41.06Z" fill="url(#paint1_linear_1_11)"/>
<path d="M249.28 39H199V89.28H249.28V39Z" fill="#F1DD50"/>
<path d="M224.14 62.04V78.8C224.168 79.3601 224.077 79.9197 223.874 80.4425C223.671 80.9653 223.361 81.4397 222.963 81.8348C222.565 82.2299 222.089 82.5369 221.564 82.7359C221.04 82.9349 220.48 83.0215 219.92 82.99C214.92 82.99 214.69 78.8 214.69 78.8M242.53 67.31C242.071 66.3704 241.361 65.5761 240.478 65.0148C239.596 64.4536 238.576 64.1474 237.53 64.13C234.29 64.13 232.53 66.23 232.53 68.32C232.53 70.41 233.58 72.51 237.79 73.56C240.46 74.23 243.01 75.66 243.01 78.8C243.01 81.94 240.25 82.99 237.77 82.99C234.597 82.99 232.5 81.5933 231.48 78.8" stroke="#333333" stroke-width="2"/>
<path d="M190.7 39H145.34C144.048 39 143 40.0477 143 41.34V86.7C143 87.9924 144.048 89.04 145.34 89.04H190.7C191.992 89.04 193.04 87.9924 193.04 86.7V41.34C193.04 40.0477 191.992 39 190.7 39Z" fill="#3978BD"/>
<path fill-rule="evenodd" clip-rule="evenodd" d="M172.04 77.89V83.37C173.035 83.8573 174.096 84.1943 175.19 84.37C176.453 84.603 177.736 84.7168 179.02 84.71C180.276 84.7175 181.53 84.5935 182.76 84.34C183.86 84.1119 184.91 83.6885 185.86 83.09C186.738 82.521 187.463 81.7449 187.97 80.83C188.872 78.9317 188.99 76.7549 188.3 74.77C188.006 74.0272 187.571 73.3481 187.02 72.77C186.426 72.1598 185.754 71.6318 185.02 71.2C184.169 70.7077 183.287 70.2701 182.38 69.89C181.67 69.6 181.02 69.31 180.45 69.03C179.943 68.7844 179.458 68.4967 179 68.17C178.641 67.9207 178.329 67.6091 178.08 67.25C177.863 66.9206 177.748 66.5344 177.75 66.14C177.757 65.7869 177.857 65.4419 178.04 65.14C178.251 64.8218 178.532 64.5553 178.86 64.36C179.262 64.1207 179.701 63.9517 180.16 63.86C180.72 63.7299 181.295 63.6695 181.87 63.68C182.352 63.6786 182.833 63.712 183.31 63.78C183.827 63.851 184.338 63.9579 184.84 64.1C185.352 64.2422 185.853 64.4193 186.34 64.63C186.809 64.8418 187.258 65.0962 187.68 65.39V60.27C186.797 59.9389 185.882 59.701 184.95 59.56C183.828 59.3935 182.694 59.3166 181.56 59.33C180.318 59.3197 179.078 59.4608 177.87 59.75C176.777 59.9996 175.737 60.4433 174.8 61.06C173.929 61.6355 173.212 62.4147 172.71 63.33C172.173 64.3416 171.908 65.4752 171.94 66.62C171.893 68.1448 172.389 69.6368 173.34 70.83C174.508 72.1389 175.977 73.1444 177.62 73.76C178.37 74.07 179.07 74.37 179.72 74.67C180.305 74.9288 180.867 75.2366 181.4 75.59C181.828 75.8572 182.206 76.1953 182.52 76.59C182.792 76.9646 182.936 77.4171 182.93 77.88C182.94 78.23 182.854 78.5761 182.68 78.88C182.489 79.2009 182.221 79.4691 181.9 79.66C181.498 79.906 181.059 80.085 180.6 80.19C180.002 80.3194 179.392 80.3798 178.78 80.37C177.58 80.3696 176.388 80.1598 175.26 79.75C174.084 79.3267 172.994 78.6968 172.04 77.89ZM162.83 64.24H169.97V59.72H150.04V64.24H157.16V84.35H162.83V64.24Z" fill="white"/>
<path d="M115.11 90.9798C113.93 90.5698 112.7 90.1798 111.43 89.8198C111.637 88.9664 111.827 88.1264 112 87.2998C114.79 73.7598 113 62.8598 106.74 59.2998C100.74 55.8498 91 59.4398 81.14 68.0298C80.14 68.8498 79.24 69.7298 78.29 70.6398C77.65 70.0398 77.02 69.4498 76.39 68.8898C66.05 59.7098 55.69 55.8898 49.47 59.4498C43.47 62.8998 41.74 73.1498 44.25 85.9798C44.49 87.2198 44.77 88.4898 45.09 89.7798C43.63 90.1898 42.21 90.6398 40.86 91.1098C28.74 95.3098 21 101.98 21 108.8C21 115.9 29.31 122.98 41.93 127.33C42.93 127.67 43.93 127.99 45.03 128.33C44.6767 129.723 44.3767 131.083 44.13 132.41C41.73 144.98 43.6 154.98 49.55 158.43C55.7 161.98 66.01 158.33 76.05 149.56C76.85 148.86 77.65 148.13 78.44 147.35C79.44 148.35 80.51 149.29 81.54 150.18C91.27 158.55 100.87 161.93 106.82 158.49C113 154.98 115 144.18 112.36 131.09C112.16 130.09 111.93 129.09 111.68 128.03C112.4 127.82 113.11 127.6 113.8 127.37C126.93 122.98 135.46 115.98 135.46 108.8C135.46 101.91 127.46 95.2398 115.11 90.9898V90.9798ZM112.27 122.73C111.64 122.93 111 123.14 110.34 123.33C108.745 118.369 106.81 113.525 104.55 108.83C106.722 104.195 108.582 99.4214 110.12 94.5398C111.29 94.8798 112.43 95.2398 113.52 95.6098C124.11 99.2598 130.52 104.61 130.52 108.8C130.52 113.23 123.52 118.97 112.22 122.73H112.27ZM107.57 132.04C108.672 137.001 108.858 142.122 108.12 147.15C107.43 150.83 106.06 153.28 104.37 154.26C100.76 156.34 93.05 153.63 84.73 146.47C83.73 145.65 82.81 144.77 81.85 143.85C85.3183 140.008 88.5223 135.935 91.44 131.66C96.6758 131.225 101.875 130.426 107 129.27C107.23 130.22 107.44 131.14 107.62 132.04H107.57ZM60 153.9C56.48 155.14 53.67 155.18 52 154.2C48.38 152.11 46.88 144.08 48.93 133.29C49.17 132.06 49.44 130.79 49.77 129.49C54.8532 130.585 60.0051 131.334 65.19 131.73C68.195 135.984 71.4718 140.039 75 143.87C74.27 144.57 73.54 145.24 72.82 145.87C69.0749 149.302 64.7289 152.014 60 153.87V153.9ZM43.51 122.7C38.6643 121.172 34.1396 118.769 30.16 115.61C27.32 113.18 25.89 110.76 25.89 108.8C25.89 104.64 32.1 99.3198 42.47 95.7098C43.73 95.2698 45.04 94.8498 46.41 94.4698C47.9492 99.4056 49.8167 104.233 52 108.92C49.791 113.678 47.9035 118.579 46.35 123.59C45.35 123.31 44.43 123.01 43.52 122.7H43.51ZM49.05 85.0298C46.9 74.0298 48.32 65.7398 51.92 63.6598C55.75 61.4398 64.22 64.5998 73.14 72.5298C73.71 73.0298 74.29 73.5298 74.86 74.1098C71.3457 77.9122 68.0885 81.9445 65.11 86.1798C59.9711 86.6412 54.8672 87.4328 49.83 88.5498C49.54 87.3498 49.27 86.1798 49.05 85.0298ZM98.42 97.2198C97.2933 95.2598 96.1333 93.3498 94.94 91.4898C98.59 91.9498 102.09 92.5698 105.38 93.3198C104.323 96.6629 103.099 99.9504 101.71 103.17C100.683 101.17 99.5867 99.1864 98.42 97.2198ZM78.29 77.6098C80.6618 80.2053 82.9013 82.9188 85 85.7398C82.76 85.6264 80.4967 85.5731 78.21 85.5798C75.9233 85.5864 73.6767 85.6364 71.47 85.7298C73.7 82.7998 75.98 80.0798 78.27 77.6098H78.29ZM58 97.2498C56.87 99.2498 55.79 101.19 54.77 103.17C53.35 99.7898 52.13 96.4698 51.13 93.2698C54.4 92.5398 57.88 91.9398 61.51 91.4798C60.31 93.3598 59.14 95.2831 58 97.2498ZM61.62 126.47C58.0835 126.086 54.569 125.522 51.09 124.78C52.1566 121.35 53.3948 117.976 54.8 114.67C55.8 116.67 56.9 118.67 58.04 120.59C59.2 122.59 60.4 124.55 61.64 126.47H61.62ZM78.42 140.35C75.9894 137.717 73.6931 134.964 71.54 132.1C73.7267 132.186 75.9567 132.23 78.23 132.23C80.5033 132.23 82.8067 132.18 85.14 132.08C83.0416 134.949 80.7987 137.709 78.42 140.35ZM101.76 114.5C103.214 117.785 104.499 121.143 105.61 124.56C102.085 125.354 98.5196 125.962 94.93 126.38C96.1167 124.5 97.2867 122.56 98.44 120.56C99.61 118.56 100.71 116.56 101.76 114.5ZM94.21 118.12C92.4233 121.22 90.59 124.173 88.71 126.98C85.32 127.22 81.81 127.35 78.23 127.35C74.65 127.35 71.23 127.23 67.87 127.02C65.93 124.19 64.05 121.22 62.27 118.14C60.5 115.08 58.87 111.99 57.39 108.92C58.87 105.84 60.5 102.75 62.26 99.6898C64.03 96.6298 65.89 93.6898 67.81 90.8598C71.21 90.5998 74.7 90.4698 78.23 90.4698C81.78 90.4698 85.23 90.5998 88.67 90.8598C90.57 93.6598 92.42 96.5998 94.19 99.6698C95.96 102.74 97.63 105.84 99.12 108.85C97.64 111.92 96 114.98 94.21 118.12ZM104.29 63.5098C108.13 65.7198 109.62 74.6398 107.21 86.3298C107.05 87.0698 106.88 87.8298 106.69 88.5998C101.649 87.4585 96.5377 86.6534 91.39 86.1898C88.438 81.9504 85.2041 77.9147 81.71 74.1098C82.59 73.2598 83.47 72.4598 84.35 71.6898C92.8 64.3398 100.69 61.4398 104.29 63.5098ZM78.23 98.5798C80.2537 98.5798 82.232 99.18 83.9145 100.305C85.5971 101.429 86.9083 103.027 87.6822 104.897C88.4562 106.767 88.6582 108.825 88.2627 110.809C87.8672 112.794 86.8919 114.617 85.4602 116.047C84.0285 117.477 82.2047 118.451 80.2196 118.844C78.2346 119.238 76.1773 119.034 74.3082 118.258C72.4391 117.482 70.8421 116.17 69.7192 114.486C68.5963 112.802 67.998 110.823 68 108.8C68 107.457 68.2647 106.127 68.7789 104.886C69.2931 103.646 70.0468 102.519 70.9969 101.57C71.947 100.62 73.0748 99.8679 74.3159 99.3548C75.557 98.8418 76.887 98.5784 78.23 98.5798Z" fill="#4DC8ED"/>
<path d="M178.308 161.73C179.263 161.631 180.143 161.169 180.766 160.439C181.389 159.709 181.708 158.768 181.657 157.81C181.605 156.851 181.188 155.95 180.49 155.291C179.792 154.632 178.868 154.266 177.908 154.27H177.778C177.288 154.285 176.805 154.398 176.359 154.6C175.912 154.803 175.51 155.092 175.175 155.451C174.84 155.81 174.58 156.231 174.409 156.691C174.238 157.151 174.159 157.64 174.178 158.13C174.219 159.055 174.596 159.933 175.238 160.6C172.978 165.07 169.508 168.33 164.308 171.07C160.988 172.883 157.181 173.604 153.428 173.13C152.077 173.014 150.768 172.602 149.595 171.922C148.421 171.243 147.412 170.314 146.638 169.2C145.59 167.701 144.984 165.939 144.889 164.112C144.793 162.286 145.212 160.47 146.098 158.87C147.191 156.774 148.738 154.95 150.628 153.53C150.368 152.67 149.968 151.2 149.768 150.13C140.098 157.13 141.098 166.6 144.038 171.07C146.238 174.4 150.698 176.47 155.628 176.47C156.976 176.477 158.319 176.319 159.628 176C163.656 175.288 167.454 173.621 170.704 171.138C173.955 168.655 176.562 165.429 178.308 161.73ZM190.038 153.47C184.978 147.53 177.508 144.27 168.978 144.27H167.908C167.6 143.668 167.132 143.162 166.555 142.809C165.978 142.456 165.315 142.27 164.638 142.27H164.508C163.519 142.287 162.577 142.697 161.89 143.408C161.202 144.12 160.826 145.076 160.843 146.065C160.86 147.054 161.27 147.996 161.982 148.683C162.693 149.371 163.649 149.747 164.638 149.73H164.778C165.479 149.697 166.156 149.467 166.732 149.068C167.309 148.668 167.761 148.115 168.038 147.47H169.238C174.294 147.467 179.235 148.974 183.428 151.8C186.628 153.824 189.103 156.81 190.498 160.33C191.054 161.572 191.33 162.92 191.306 164.281C191.282 165.641 190.958 166.979 190.358 168.2C189.527 169.896 188.223 171.315 186.602 172.286C184.982 173.256 183.116 173.737 181.228 173.67C178.98 173.64 176.761 173.164 174.698 172.27C173.968 172.93 172.628 174 171.698 174.67C174.382 175.97 177.316 176.673 180.298 176.73C186.698 176.73 191.428 173.2 193.228 169.67C195.168 165.8 195.038 159.13 190.038 153.47ZM156.178 162.87C156.214 163.836 156.623 164.75 157.318 165.421C158.014 166.092 158.942 166.468 159.908 166.47H160.038C160.996 166.407 161.894 165.977 162.544 165.27C163.194 164.563 163.547 163.633 163.53 162.673C163.514 161.713 163.128 160.796 162.454 160.112C161.78 159.428 160.868 159.03 159.908 159H159.778C159.618 158.988 159.458 159.012 159.308 159.07C156.61 154.63 155.394 149.447 155.838 144.27C156.026 140.494 157.406 136.874 159.778 133.93C161.708 131.47 165.438 130.27 167.978 130.2C175.038 130.07 178.038 138.87 178.238 142.4C179.108 142.6 180.578 143.07 181.578 143.4C180.778 132.6 174.108 127 167.708 127C161.708 127 156.178 131.34 153.978 137.73C150.908 146.27 152.908 154.47 156.638 160.93C156.268 161.505 156.106 162.19 156.178 162.87Z" fill="#965AF4"/>
<path fill-rule="evenodd" clip-rule="evenodd" d="M198.01 152.337C198.005 147.794 199.177 143.328 201.411 139.372C203.645 135.416 206.865 132.107 210.758 129.765C214.65 127.423 219.083 126.129 223.624 126.009C228.166 125.889 232.661 126.947 236.672 129.08C240.683 131.212 244.073 134.347 246.513 138.179C248.953 142.011 250.359 146.41 250.595 150.946C250.83 155.483 249.887 160.004 247.857 164.068C245.827 168.132 242.779 171.601 239.01 174.137L215.23 140.787C215.016 140.484 214.712 140.257 214.36 140.138C214.009 140.019 213.629 140.015 213.275 140.126C212.921 140.238 212.612 140.458 212.392 140.757C212.171 141.055 212.052 141.416 212.05 141.787V168.097H215.55V147.287L236 175.917C231.988 177.904 227.535 178.834 223.063 178.621C218.591 178.407 214.247 177.055 210.442 174.695C206.638 172.334 203.499 169.042 201.322 165.13C199.144 161.217 198.001 156.814 198 152.337H198.01ZM233.09 161.107V140.107H236.6V161.107H233.09Z" fill="black"/>
<path d="M283.921 124.334L261.261 163.763L263.305 164.938L285.965 125.509L283.921 124.334Z" fill="#DA2590"/>
<path d="M305.381 162.04H260.061V164.39H305.381V162.04Z" fill="#DA2590"/>
<path d="M262.13 161.311L260.955 163.346L283.627 176.436L284.802 174.401L262.13 161.311Z" fill="#DA2590"/>
<path d="M281.825 127.214L280.65 129.249L303.322 142.339L304.497 140.304L281.825 127.214Z" fill="#DA2590"/>
<path d="M285.194 127.898L262.418 140.988L263.593 143.033L286.369 129.943L285.194 127.898Z" fill="#DA2590"/>
<path d="M282.271 125.939L280.236 127.114L302.896 166.363L304.931 165.188L282.271 125.939Z" fill="#DA2590"/>
<path d="M264.211 138.74H261.861V164.92H264.211V138.74Z" fill="#DA2590"/>
<path d="M303.601 138.74H301.251V164.92H303.601V138.74Z" fill="#DA2590"/>
<path d="M301.919 162.305L282.2 173.69L283.225 175.465L302.944 164.08L301.919 162.305Z" fill="#DA2590"/>
<path d="M306.701 165.68C306.212 166.528 305.483 167.213 304.605 167.647C303.728 168.081 302.741 168.245 301.771 168.118C300.8 167.992 299.888 167.58 299.152 166.935C298.415 166.291 297.886 165.442 297.631 164.497C297.377 163.551 297.408 162.552 297.722 161.624C298.035 160.697 298.617 159.883 299.393 159.286C300.169 158.69 301.104 158.336 302.081 158.271C303.058 158.206 304.032 158.432 304.881 158.92C305.446 159.242 305.942 159.674 306.34 160.189C306.738 160.704 307.03 161.292 307.199 161.921C307.368 162.549 307.411 163.205 307.326 163.85C307.24 164.495 307.028 165.117 306.701 165.68Z" fill="#DA2590"/>
<path d="M267.291 142.92C266.803 143.766 266.075 144.449 265.2 144.882C264.324 145.315 263.34 145.479 262.372 145.352C261.403 145.226 260.494 144.815 259.758 144.172C259.023 143.529 258.495 142.683 258.241 141.74C257.986 140.797 258.017 139.799 258.33 138.874C258.642 137.949 259.222 137.136 259.996 136.54C260.769 135.944 261.702 135.591 262.677 135.525C263.651 135.459 264.624 135.684 265.471 136.17C266.594 136.836 267.412 137.915 267.751 139.176C268.089 140.438 267.92 141.781 267.281 142.92" fill="#DA2590"/>
<path d="M258.701 165.68C258.193 164.826 257.952 163.84 258.008 162.848C258.063 161.856 258.413 160.903 259.012 160.111C259.612 159.319 260.433 158.723 261.373 158.4C262.312 158.076 263.327 158.04 264.287 158.296C265.247 158.551 266.109 159.087 266.763 159.835C267.417 160.582 267.834 161.508 267.96 162.493C268.086 163.479 267.915 164.479 267.47 165.368C267.025 166.256 266.325 166.991 265.461 167.48C264.322 168.124 262.977 168.296 261.713 167.959C260.45 167.623 259.368 166.804 258.701 165.68Z" fill="#DA2590"/>
<path d="M298.171 142.92C297.684 142.074 297.459 141.102 297.524 140.128C297.588 139.154 297.941 138.221 298.535 137.447C299.13 136.672 299.941 136.092 300.866 135.778C301.79 135.465 302.787 135.432 303.73 135.685C304.673 135.937 305.521 136.463 306.165 137.197C306.809 137.931 307.221 138.839 307.35 139.807C307.478 140.774 307.317 141.759 306.886 142.635C306.456 143.511 305.775 144.24 304.931 144.73C303.792 145.37 302.448 145.538 301.187 145.2C299.926 144.862 298.847 144.043 298.181 142.92" fill="#DA2590"/>
<path d="M282.701 179.53C281.724 179.52 280.772 179.221 279.964 178.672C279.157 178.122 278.53 177.345 278.163 176.44C277.796 175.535 277.705 174.541 277.902 173.584C278.099 172.627 278.574 171.75 279.268 171.063C279.962 170.375 280.844 169.909 281.803 169.722C282.762 169.535 283.755 169.636 284.656 170.012C285.558 170.388 286.328 171.022 286.87 171.835C287.412 172.648 287.701 173.603 287.701 174.58C287.701 175.234 287.571 175.882 287.319 176.486C287.067 177.09 286.698 177.638 286.233 178.098C285.768 178.558 285.217 178.922 284.61 179.168C284.004 179.413 283.355 179.537 282.701 179.53Z" fill="#DA2590"/>
<path d="M282.701 134C281.71 134 280.741 133.705 279.918 133.154C279.094 132.602 278.454 131.818 278.077 130.902C277.7 129.985 277.604 128.977 277.801 128.006C277.998 127.035 278.479 126.144 279.183 125.447C279.887 124.75 280.783 124.277 281.756 124.09C282.729 123.903 283.736 124.009 284.649 124.395C285.562 124.781 286.339 125.43 286.882 126.259C287.426 127.087 287.711 128.059 287.701 129.05C287.687 130.367 287.155 131.626 286.219 132.553C285.282 133.48 284.018 134 282.701 134Z" fill="#DA2590"/>
<path d="M536.489 24.0017C534.448 23.9755 532.422 24.3582 530.531 25.1272C528.64 25.8962 526.923 27.0358 525.479 28.479C524.036 29.9222 522.896 31.6397 522.127 33.5303C521.358 35.4209 520.975 37.4463 521.001 39.4871C521.001 49.6461 530.196 54 531.648 54C532.613 54 532.613 53.5137 532.613 53.0275V50.6112C529.231 51.5762 527.78 49.6461 527.294 48.1948C527.294 48.1948 527.294 47.7086 526.328 46.7435C525.842 46.2573 523.904 45.2923 525.842 45.2923C527.294 45.2923 528.259 47.2223 528.259 47.2223C528.732 47.8987 529.441 48.3735 530.247 48.5535C531.053 48.7334 531.897 48.6055 532.613 48.1948C532.715 47.4594 533.057 46.7782 533.586 46.2573C529.71 45.771 526.807 44.3197 526.807 39.0008C526.807 37.0608 527.291 35.6095 528.259 34.647C527.972 33.957 527.824 33.2172 527.824 32.47C527.824 31.7228 527.972 30.983 528.259 30.2931C529.898 30.3865 531.446 31.0756 532.613 32.2306C534.065 31.2581 538.905 31.2581 540.357 32.2306C541.524 31.0756 543.072 30.3865 544.711 30.2931C545.676 33.6819 544.711 34.647 544.711 34.647C545.679 35.6145 546.163 37.0658 546.163 39.0008C546.163 44.3197 542.773 45.7336 539.392 46.2573C540.085 47.0603 540.442 48.1002 540.387 49.1599V53.0275C540.387 53.5137 540.387 54 541.352 54C542.803 54 551.999 49.6461 551.999 39.4871C552.026 37.4441 551.643 35.4164 550.873 33.5238C550.103 31.6313 548.961 29.9123 547.515 28.4686C546.069 27.0249 544.348 25.8857 542.454 25.1185C540.561 24.3512 538.532 23.9715 536.489 24.0017Z" fill="white"/>
<path d="M524.29 74.33H524.67V78.33H524.29V74.33ZM523.57 74.33H523.96V78.33H523.57V74.33ZM522.84 74.33H523.24V78.33H522.89V74.33H522.84ZM522.12 74.33H522.51V78.33H522.12V74.33ZM521.4 74.33H521.79V78.33H521.4V74.33ZM520.69 74.33H521.07V78.33H520.69V74.33ZM520.29 73.93H525.06V78.7H520.3V73.93H520.29Z" fill="#00ACD3"/>
<path d="M542.48 73.01H547.98V78.63H550.76C552.06 78.6282 553.351 78.4119 554.58 77.99C555.229 77.7802 555.853 77.4985 556.44 77.15C555.684 76.1117 555.237 74.8812 555.15 73.6C554.918 71.7296 555.4 69.8407 556.5 68.31L557.07 67.64L557.76 68.19C559.586 69.5274 560.822 71.5202 561.21 73.75C563.332 73.0969 565.627 73.3127 567.59 74.35L568.35 74.78L567.95 75.56C567.14 76.9126 565.949 77.9959 564.526 78.6738C563.102 79.3516 561.511 79.5938 559.95 79.37C555.19 91.23 544.83 96.85 532.25 96.85C529.117 97.0357 525.993 96.3718 523.207 94.9285C520.42 93.4851 518.075 91.3159 516.42 88.65L516.36 88.56L515.87 87.56C514.75 85.0161 514.313 82.2245 514.6 79.46L514.67 78.63H519.37V73.01H524.89V67.5H535.89V62H542.49V73L542.48 73.01Z" fill="#3B4F56"/>
<path d="M560.3 75.09C560.335 73.8828 560.069 72.6858 559.526 71.607C558.983 70.5281 558.18 69.6013 557.19 68.91C556.329 70.1695 555.923 71.6843 556.037 73.2055C556.152 74.7266 556.781 76.1635 557.82 77.28C555.783 78.7984 553.3 79.6001 550.76 79.56H515.51C515.212 82.3699 515.718 85.2068 516.97 87.74L517.37 88.48C517.63 88.91 517.91 89.32 518.2 89.72C519.65 89.82 520.99 89.85 522.2 89.82C524.182 89.8328 526.154 89.5463 528.05 88.97C528.102 88.9511 528.158 88.9428 528.214 88.9457C528.27 88.9486 528.324 88.9625 528.375 88.9867C528.425 89.0109 528.47 89.0449 528.507 89.0867C528.544 89.1284 528.572 89.1772 528.59 89.23C528.625 89.3361 528.618 89.4519 528.57 89.5528C528.521 89.6536 528.435 89.7315 528.33 89.77L527.71 89.96C526.405 90.3265 525.064 90.5478 523.71 90.62C523.8 90.62 523.61 90.62 523.61 90.62H523.43C522.79 90.62 522.11 90.62 521.43 90.62C520.75 90.62 519.9 90.62 519.06 90.62C520.767 92.3984 522.836 93.79 525.127 94.7009C527.418 95.6117 529.878 96.0206 532.34 95.9C544.52 95.9 554.85 90.5 559.43 78.38C562.68 78.71 565.8 77.88 567.21 75.11C566.147 74.5823 564.977 74.3076 563.79 74.3076C562.603 74.3076 561.433 74.5823 560.37 75.11" fill="#08AADA"/>
<path d="M560.3 75.09C560.335 73.8828 560.069 72.6858 559.526 71.607C558.983 70.5281 558.18 69.6013 557.19 68.91C556.329 70.1695 555.923 71.6843 556.037 73.2055C556.152 74.7266 556.781 76.1635 557.82 77.28C555.783 78.7984 553.3 79.6001 550.76 79.56H517.6C517.418 81.5226 517.746 83.499 518.554 85.2969C519.362 87.0948 520.622 88.6531 522.21 89.82C524.192 89.8344 526.164 89.5478 528.06 88.97C528.113 88.9516 528.168 88.9438 528.224 88.9469C528.279 88.95 528.334 88.964 528.384 88.9882C528.434 89.0123 528.479 89.0461 528.516 89.0876C528.553 89.1291 528.582 89.1775 528.6 89.23C528.618 89.2825 528.626 89.3382 528.623 89.3937C528.62 89.4493 528.606 89.5037 528.582 89.5538C528.558 89.604 528.524 89.6489 528.482 89.686C528.441 89.7231 528.393 89.7516 528.34 89.77L527.72 89.96C526.366 90.3401 524.974 90.5715 523.57 90.65V90.6C527.72 92.73 533.73 92.72 540.62 90.07C548.488 86.8993 555.371 81.691 560.56 74.98L560.34 75.09" fill="#2DB9EC"/>
<path d="M515.58 83.22C515.789 84.7934 516.259 86.3209 516.97 87.74L517.37 88.47C517.63 88.9 517.91 89.32 518.2 89.72C519.65 89.81 520.99 89.85 522.2 89.82C524.181 89.828 526.153 89.5415 528.05 88.97C528.102 88.9511 528.158 88.9428 528.214 88.9457C528.27 88.9486 528.324 88.9625 528.375 88.9867C528.425 89.0109 528.47 89.0449 528.507 89.0867C528.544 89.1284 528.572 89.1772 528.59 89.23C528.625 89.3361 528.618 89.4519 528.57 89.5527C528.521 89.6536 528.435 89.7315 528.33 89.77L527.71 89.96C526.358 90.3328 524.97 90.5575 523.57 90.63H523.35C522.71 90.63 522.03 90.69 521.35 90.69C520.67 90.69 519.79 90.69 518.94 90.63C520.653 92.4094 522.727 93.802 525.023 94.7144C527.319 95.6267 529.783 96.0378 532.25 95.92C542.68 95.92 551.75 91.92 557.01 83.21L515.58 83.22Z" fill="#118DBA"/>
<path d="M517.89 83.22C518.422 85.8883 519.957 88.2508 522.18 89.82C524.161 89.828 526.133 89.5415 528.03 88.97C528.083 88.9511 528.138 88.9428 528.194 88.9457C528.25 88.9486 528.304 88.9625 528.355 88.9867C528.405 89.0109 528.45 89.0449 528.487 89.0867C528.524 89.1284 528.552 89.1772 528.57 89.23C528.605 89.3361 528.598 89.4519 528.55 89.5528C528.501 89.6536 528.415 89.7315 528.31 89.77L527.69 89.96C526.332 90.3328 524.937 90.5574 523.53 90.63C527.67 92.76 533.67 92.73 540.53 90.08C544.78 88.4008 548.752 86.0879 552.31 83.22H517.89Z" fill="#089CC7"/>
<path d="M529.79 68.83H530.17V72.83H529.79V68.83ZM529.07 68.83H529.46V72.83H529.07V68.83ZM528.34 68.83H528.74V72.83H528.34V68.83ZM527.62 68.83H528.01V72.83H527.62V68.83ZM526.9 68.83H527.29V72.83H526.89L526.9 68.83ZM526.19 68.83H526.57V72.83H526.19V68.83ZM525.79 68.43H530.56V73.2H525.8V68.43H525.79Z" fill="#00ACD3"/>
<path d="M529.79 74.33H530.17V78.33H529.79V74.33ZM529.07 74.33H529.46V78.33H529.07V74.33ZM528.34 74.33H528.74V78.33H528.34V74.33ZM527.62 74.33H528.01V78.33H527.62V74.33ZM526.9 74.33H527.29V78.33H526.89L526.9 74.33ZM526.19 74.33H526.57V78.33H526.19V74.33ZM525.79 73.93H530.56V78.7H525.8V73.93H525.79Z" fill="#2BC3ED"/>
<path d="M535.29 74.33H535.66V78.33H535.29V74.33ZM534.56 74.33H534.96V78.33H534.57V74.33H534.56ZM533.84 74.33H534.23V78.33H533.89V74.33H533.84ZM533.12 74.33H533.52V78.33H533.12V74.33ZM532.4 74.33H532.79V78.33H532.4V74.33ZM531.69 74.33H532.06V78.33H531.69V74.33ZM531.29 73.93H536.06V78.7H531.3V73.93H531.29Z" fill="#00ACD3"/>
<path d="M535.29 68.83H535.66V72.83H535.29V68.83ZM534.56 68.83H534.96V72.83H534.57V68.83H534.56ZM533.84 68.83H534.23V72.83H533.89V68.83H533.84ZM533.12 68.83H533.52V72.83H533.12V68.83ZM532.4 68.83H532.79V72.83H532.4V68.83ZM531.69 68.83H532.06V72.83H531.69V68.83ZM531.29 68.43H536.06V73.2H531.3V68.43H531.29Z" fill="#2BC3ED"/>
<path d="M540.79 74.33H541.17V78.33H540.79V74.33ZM540.07 74.33H540.46V78.33H540.07V74.33ZM539.34 74.33H539.74V78.33H539.34V74.33ZM538.62 74.33H539.01V78.33H538.62V74.33ZM537.9 74.33H538.29V78.33H537.89L537.9 74.33ZM537.19 74.33H537.57V78.33H537.19V74.33ZM536.8 73.93H541.57V78.7H536.8V73.93Z" fill="#2BC3ED"/>
<path d="M540.79 68.83H541.17V72.83H540.79V68.83ZM540.07 68.83H540.46V72.83H540.07V68.83ZM539.34 68.83H539.74V72.83H539.34V68.83ZM538.62 68.83H539.01V72.83H538.62V68.83ZM537.9 68.83H538.29V72.83H537.89L537.9 68.83ZM537.19 68.83H537.57V72.83H537.19V68.83ZM536.79 68.43H541.56V73.2H536.8V68.43H536.79Z" fill="#00ACD3"/>
<path d="M540.79 63.33H541.17V67.33H540.79V63.33ZM540.07 63.33H540.46V67.33H540.07V63.33ZM539.34 63.33H539.74V67.33H539.34V63.33ZM538.62 63.33H539.01V67.33H538.62V63.33ZM537.9 63.33H538.29V67.33H537.89L537.9 63.33ZM537.19 63.33H537.57V67.33H537.19V63.33ZM536.8 62.93H541.57V67.7H536.8V62.93Z" fill="#2BC3ED"/>
<path d="M530.26 86.42C530.521 86.418 530.778 86.4937 530.996 86.6376C531.214 86.7814 531.385 86.9869 531.487 87.2279C531.588 87.4689 531.616 87.7346 531.566 87.9913C531.516 88.248 531.391 88.4842 531.207 88.6698C531.023 88.8554 530.788 88.9821 530.531 89.0339C530.275 89.0856 530.009 89.06 529.767 88.9604C529.525 88.8608 529.319 88.6917 529.173 88.4744C529.028 88.2571 528.95 88.0015 528.95 87.74C528.95 87.3916 529.088 87.0574 529.333 86.8101C529.578 86.5629 529.912 86.4226 530.26 86.42Z" fill="#D6EEF2"/>
<path d="M530.26 86.8C530.379 86.799 530.498 86.8193 530.61 86.86C530.522 86.9104 530.459 86.9935 530.432 87.091C530.406 87.1885 530.42 87.2925 530.47 87.38C530.52 87.4675 530.604 87.5314 530.701 87.5577C530.799 87.5839 530.902 87.5704 530.99 87.52C531.05 87.4893 531.099 87.4403 531.13 87.38C531.227 87.6094 531.228 87.8678 531.134 88.0984C531.041 88.329 530.859 88.513 530.63 88.61C530.516 88.6579 530.393 88.6829 530.269 88.6835C530.145 88.684 530.023 88.6602 529.908 88.6133C529.793 88.5664 529.689 88.4974 529.601 88.4101C529.513 88.3229 529.443 88.2193 529.395 88.105C529.347 87.9908 529.322 87.8682 529.322 87.7443C529.321 87.6204 529.345 87.4976 529.392 87.3829C529.439 87.2682 529.508 87.1639 529.595 87.0759C529.682 86.9879 529.786 86.9179 529.9 86.87C530.014 86.8219 530.136 86.7981 530.26 86.8Z" fill="#3B4F56"/>
<path d="M507 83.7H568.18C566.84 83.36 563.96 82.91 564.44 81.16C562.01 83.96 556.17 83.16 554.7 81.74C553.06 84.13 543.5 83.22 542.84 81.37C540.78 83.78 534.4 83.78 532.34 81.37C531.69 83.22 522.12 84.13 520.48 81.74C519 83.13 513.17 83.96 510.74 81.16C511.22 82.91 508.33 83.36 507 83.7Z" fill="#3B4F56"/>
<path d="M533.76 95.9C531.085 94.744 528.943 92.6234 527.76 89.96C526.339 90.3393 524.88 90.5606 523.41 90.62C522.77 90.62 522.1 90.62 521.41 90.62C520.72 90.62 519.75 90.62 518.85 90.55C520.578 92.3534 522.676 93.7624 524.999 94.6805C527.322 95.5987 529.816 96.0044 532.31 95.87H533.81" fill="#C1DCE1"/>
<path d="M528.89 92.08C528.412 91.4187 528.006 90.708 527.68 89.96C526.259 90.3393 524.8 90.5606 523.33 90.62C525.061 91.4887 526.955 91.9827 528.89 92.07" fill="#D6EEF2"/>
<path d="M462.4 84.3454C462.176 84.3459 461.955 84.2873 461.76 84.1754L459.76 82.9754C459.45 82.8054 459.6 82.7454 459.69 82.7154C460.013 82.6192 460.322 82.4814 460.61 82.3054C460.633 82.2912 460.658 82.2836 460.685 82.2836C460.712 82.2836 460.738 82.2912 460.76 82.3054L462.32 83.2354C462.348 83.2503 462.379 83.2581 462.41 83.2581C462.441 83.2581 462.472 83.2503 462.5 83.2354L468.56 79.6854C468.59 79.6685 468.614 79.6436 468.63 79.6135C468.646 79.5834 468.653 79.5494 468.65 79.5154V72.5154C468.652 72.4829 468.644 72.4506 468.629 72.4222C468.613 72.3939 468.589 72.3707 468.56 72.3554L462.47 68.8354C462.442 68.8206 462.411 68.8128 462.38 68.8128C462.349 68.8128 462.318 68.8206 462.29 68.8354L456.2 72.3554C456.172 72.3716 456.149 72.3949 456.133 72.4231C456.117 72.4512 456.109 72.4831 456.11 72.5154V79.5154C456.11 79.549 456.118 79.5822 456.133 79.612C456.149 79.6417 456.172 79.6669 456.2 79.6854L457.86 80.6854C458.76 81.1454 459.33 80.6054 459.33 80.0754V73.0754C459.332 73.0285 459.352 72.9841 459.385 72.9508C459.419 72.9176 459.463 72.8978 459.51 72.8954H460.29C460.337 72.8978 460.381 72.9176 460.415 72.9508C460.448 72.9841 460.468 73.0285 460.47 73.0754V80.0754C460.503 80.3247 460.481 80.5782 460.404 80.8176C460.327 81.057 460.197 81.2761 460.025 81.4591C459.853 81.6421 459.641 81.7843 459.407 81.8754C459.173 81.9664 458.921 82.004 458.67 81.9854C458.177 81.9931 457.692 81.8613 457.27 81.6054L455.67 80.6854C455.474 80.5735 455.311 80.412 455.197 80.2172C455.083 80.0224 455.022 79.8011 455.02 79.5754V72.5754C455.021 72.3482 455.082 72.1252 455.196 71.9287C455.31 71.7322 455.473 71.569 455.67 71.4554L461.76 67.9354C461.956 67.8269 462.176 67.7699 462.4 67.7699C462.624 67.7699 462.844 67.8269 463.04 67.9354L469.13 71.4554C469.324 71.571 469.485 71.7349 469.597 71.9312C469.71 72.1275 469.769 72.3494 469.77 72.5754V79.5754C469.767 79.7998 469.707 80.0197 469.595 80.214C469.483 80.4084 469.323 80.5707 469.13 80.6854L463.04 84.2154C462.838 84.3026 462.62 84.3468 462.4 84.3454ZM464.29 79.5054C461.62 79.5054 461.07 78.2854 461.07 77.2554C461.07 77.205 461.09 77.1567 461.126 77.1211C461.161 77.0854 461.21 77.0654 461.26 77.0654H462.05C462.071 77.0641 462.092 77.0669 462.112 77.0737C462.132 77.0805 462.15 77.0912 462.166 77.1051C462.182 77.1191 462.195 77.136 462.204 77.1549C462.213 77.1738 462.219 77.1944 462.22 77.2154C462.34 78.0254 462.69 78.4254 464.31 78.4254C465.59 78.4254 466.14 78.1354 466.14 77.4254C466.14 77.0354 465.99 76.7454 463.99 76.5454C462.29 76.3954 461.29 76.0254 461.29 74.6854C461.29 73.3454 462.29 72.6854 464.07 72.6854C466.02 72.6854 466.98 73.3554 467.07 74.8154C467.085 74.861 467.085 74.9099 467.07 74.9554C467.036 74.9908 466.989 75.0122 466.94 75.0154H466.15C466.112 75.0148 466.074 75.0018 466.044 74.9784C466.013 74.955 465.991 74.9224 465.98 74.8854C465.8 74.0454 465.33 73.7654 464.08 73.7654C462.67 73.7654 462.5 74.2554 462.5 74.6254C462.5 74.9954 462.7 75.2054 464.59 75.4454C466.48 75.6854 467.36 76.0454 467.36 77.3554C467.36 78.6654 466.21 79.5054 464.29 79.5054Z" fill="#529E45"/>
<path d="M443.5 56.8254C443.499 56.6883 443.462 56.5538 443.391 56.436C443.321 56.3182 443.22 56.2214 443.1 56.1554L436.63 52.4354C436.522 52.3749 436.403 52.3374 436.28 52.3254H436.22C436.096 52.333 435.976 52.3707 435.87 52.4354L429.4 56.1554C429.28 56.2214 429.179 56.3182 429.109 56.436C429.039 56.5538 429.001 56.6883 429 56.8254V66.8254C428.999 66.8925 429.016 66.9586 429.049 67.0168C429.083 67.0749 429.131 67.1228 429.19 67.1554C429.248 67.1941 429.316 67.2148 429.385 67.2148C429.455 67.2148 429.522 67.1941 429.58 67.1554L433.42 64.9554C433.542 64.8912 433.643 64.7947 433.714 64.6766C433.785 64.5584 433.821 64.4231 433.82 64.2854V59.6254C433.82 59.4868 433.857 59.3507 433.928 59.2311C433.998 59.1116 434.099 59.013 434.22 58.9454L435.85 58.0054C435.969 57.9298 436.109 57.8915 436.25 57.8954C436.385 57.8917 436.518 57.9302 436.63 58.0054L438.26 58.9454C438.38 59.0146 438.48 59.1135 438.55 59.2327C438.62 59.3519 438.658 59.4872 438.66 59.6254V64.3054C438.659 64.4418 438.695 64.576 438.763 64.6939C438.832 64.8118 438.931 64.909 439.05 64.9754L442.9 67.1754C442.959 67.215 443.029 67.2361 443.1 67.2361C443.171 67.2361 443.241 67.215 443.3 67.1754C443.36 67.1433 443.41 67.0957 443.445 67.0377C443.48 66.9797 443.499 66.9133 443.5 66.8454V56.8454V56.8254Z" fill="white"/>
<path d="M474.61 43.0454C474.551 43.0156 474.486 43 474.42 43C474.354 43 474.289 43.0156 474.23 43.0454C474.17 43.0792 474.119 43.1285 474.084 43.1883C474.049 43.248 474.03 43.3161 474.03 43.3854V53.3054C474.029 53.354 474.015 53.4014 473.991 53.4433C473.966 53.4852 473.932 53.5203 473.89 53.5454C473.849 53.5702 473.803 53.5832 473.755 53.5832C473.707 53.5832 473.661 53.5702 473.62 53.5454L472 52.6154C471.881 52.547 471.747 52.5109 471.61 52.5109C471.473 52.5109 471.339 52.547 471.22 52.6154L464.75 56.3554C464.63 56.4214 464.529 56.5182 464.459 56.636C464.389 56.7538 464.351 56.8882 464.35 57.0254V64.4854C464.35 64.6241 464.387 64.7602 464.458 64.8797C464.528 64.9993 464.629 65.0979 464.75 65.1654L471.22 68.9054C471.34 68.9693 471.474 69.0028 471.61 69.0028C471.746 69.0028 471.88 68.9693 472 68.9054L478.47 65.1654C478.59 65.0963 478.69 64.9973 478.76 64.8782C478.83 64.759 478.868 64.6237 478.87 64.4854V45.8854C478.87 45.7455 478.832 45.6081 478.762 45.487C478.692 45.366 478.591 45.2654 478.47 45.1954L474.61 43.0454ZM474.01 62.0454C474.011 62.0791 474.003 62.1123 473.987 62.142C473.971 62.1717 473.948 62.1969 473.92 62.2154L471.71 63.4954C471.679 63.5105 471.645 63.5183 471.61 63.5183C471.575 63.5183 471.541 63.5105 471.51 63.4954L469.29 62.2054C469.26 62.1882 469.235 62.1634 469.218 62.1336C469.2 62.1038 469.191 62.07 469.19 62.0354V59.4654C469.188 59.4316 469.196 59.3979 469.214 59.3691C469.232 59.3404 469.259 59.3181 469.29 59.3054L471.5 58.0154C471.531 58.0004 471.565 57.9926 471.6 57.9926C471.635 57.9926 471.669 58.0004 471.7 58.0154L473.91 59.3054C473.938 59.3216 473.961 59.3449 473.977 59.3731C473.993 59.4012 474.001 59.4331 474 59.4654V62.0354L474.01 62.0454Z" fill="white"/>
<path d="M496.14 59.4054C496.26 59.3399 496.36 59.2428 496.428 59.1247C496.497 59.0066 496.532 58.872 496.53 58.7354V56.9154C496.526 56.78 496.489 56.6478 496.42 56.5307C496.352 56.4137 496.256 56.3156 496.14 56.2454L489.72 52.5254C489.601 52.457 489.467 52.4209 489.33 52.4209C489.193 52.4209 489.059 52.457 488.94 52.5254L482.47 56.2654C482.349 56.3305 482.248 56.4272 482.178 56.5452C482.107 56.6632 482.07 56.798 482.07 56.9354V64.3954C482.069 64.5331 482.106 64.6684 482.176 64.7865C482.247 64.9047 482.348 65.0012 482.47 65.0654L488.89 68.7354C489.007 68.804 489.14 68.8402 489.275 68.8402C489.41 68.8402 489.543 68.804 489.66 68.7354L493.55 66.5654C493.611 66.533 493.661 66.4847 493.697 66.4257C493.732 66.3667 493.751 66.2992 493.751 66.2304C493.751 66.1617 493.732 66.0942 493.697 66.0352C493.661 65.9762 493.611 65.9279 493.55 65.8954L487.05 62.1554C486.991 62.1201 486.941 62.0705 486.906 62.0111C486.872 61.9516 486.852 61.8843 486.85 61.8154V59.4854C486.85 59.4161 486.869 59.348 486.904 59.2883C486.939 59.2285 486.99 59.1792 487.05 59.1454L489.05 57.9854C489.109 57.9512 489.177 57.9332 489.245 57.9332C489.314 57.9332 489.381 57.9512 489.44 57.9854L491.44 59.1454C491.501 59.1792 491.551 59.2285 491.586 59.2883C491.621 59.348 491.64 59.4161 491.64 59.4854V61.3154C491.641 61.3846 491.66 61.4522 491.695 61.5118C491.73 61.5714 491.78 61.6209 491.84 61.6554C491.901 61.6896 491.97 61.7075 492.04 61.7075C492.11 61.7075 492.179 61.6896 492.24 61.6554L496.08 59.4054H496.14Z" fill="#FFFCFC"/>
<path d="M489.23 59.0554C489.252 59.0412 489.279 59.0336 489.305 59.0336C489.332 59.0336 489.358 59.0412 489.38 59.0554L490.62 59.7754C490.645 59.7887 490.666 59.8089 490.68 59.8337C490.695 59.8585 490.701 59.8869 490.7 59.9154V61.3454C490.7 61.3737 490.693 61.4016 490.679 61.4262C490.665 61.4508 490.645 61.4712 490.62 61.4854L489.38 62.2054C489.358 62.2196 489.332 62.2272 489.305 62.2272C489.279 62.2272 489.252 62.2196 489.23 62.2054L487.99 61.4854C487.968 61.4694 487.95 61.4483 487.938 61.424C487.926 61.3996 487.92 61.3727 487.92 61.3454V59.9154C487.919 59.888 487.925 59.8608 487.937 59.8363C487.949 59.8118 487.967 59.7908 487.99 59.7754L489.23 59.0554Z" fill="#529E45"/>
<path d="M454.29 52.5554C454.171 52.487 454.037 52.4509 453.9 52.4509C453.763 52.4509 453.629 52.487 453.51 52.5554L447.09 56.2654C446.971 56.3315 446.873 56.4289 446.806 56.5471C446.739 56.6653 446.706 56.7996 446.71 56.9354V64.3654C446.709 64.5006 446.744 64.6337 446.81 64.7514C446.877 64.869 446.973 64.9669 447.09 65.0354L453.51 68.7454C453.629 68.8139 453.763 68.8499 453.9 68.8499C454.037 68.8499 454.171 68.8139 454.29 68.7454L460.72 65.0354C460.838 64.9685 460.936 64.8709 461.003 64.7529C461.07 64.635 461.103 64.501 461.1 64.3654V56.9354C461.099 56.8006 461.064 56.6683 460.997 56.551C460.931 56.4337 460.835 56.3354 460.72 56.2654L454.29 52.5554Z" fill="url(#paint2_linear_1_11)"/>
<path d="M460.76 56.2654L454.29 52.5554L454.09 52.4754L446.85 64.8754C446.914 64.9456 446.989 65.0062 447.07 65.0554L453.52 68.7654C453.609 68.8205 453.709 68.8553 453.812 68.8674C453.916 68.8795 454.021 68.8686 454.12 68.8354L460.91 56.4154C460.863 56.3552 460.806 56.3044 460.74 56.2654H460.76Z" fill="url(#paint3_linear_1_11)"/>
<path fill-rule="evenodd" clip-rule="evenodd" d="M460.78 65.0354C460.961 64.9274 461.097 64.7566 461.16 64.5554L454.08 52.4654C453.892 52.4247 453.695 52.4569 453.53 52.5554L447.12 56.2454L454.03 68.8554C454.129 68.8346 454.226 68.8045 454.32 68.7654L460.78 65.0354Z" fill="url(#paint4_linear_1_11)"/>
<path fill-rule="evenodd" clip-rule="evenodd" d="M460.78 65.0354L454.34 68.7454C454.251 68.7949 454.152 68.8255 454.05 68.8354L454.17 69.0654L461.29 64.9354V64.8454L461.11 64.5354C461.093 64.6398 461.053 64.739 460.992 64.8256C460.932 64.9122 460.852 64.9839 460.76 65.0354H460.78Z" fill="url(#paint5_linear_1_11)"/>
<path fill-rule="evenodd" clip-rule="evenodd" d="M460.78 65.0354L454.34 68.7454C454.251 68.7949 454.152 68.8255 454.05 68.8354L454.17 69.0654L461.29 64.9354V64.8454L461.11 64.5354C461.093 64.6398 461.053 64.739 460.992 64.8256C460.932 64.9122 460.852 64.9839 460.76 65.0354H460.78Z" fill="url(#paint6_linear_1_11)"/>
<path fill-rule="evenodd" clip-rule="evenodd" d="M402.562 185.87C402.258 185.844 401.961 185.77 401.682 185.65C401.628 185.587 401.594 185.511 401.582 185.43C401.582 184.96 401.582 183.62 401.582 182.72C401.621 182.094 401.471 181.47 401.152 180.93C400.982 180.676 400.751 180.468 400.48 180.327C400.209 180.185 399.907 180.114 399.602 180.12C398.844 180.228 398.143 180.579 397.602 181.12C397.602 181.12 397.482 181.22 397.492 181.12C397.502 181.02 397.492 180.67 397.492 180.47C397.497 180.42 397.492 180.369 397.477 180.32C397.461 180.272 397.435 180.228 397.402 180.19C396.733 180.455 396.035 180.636 395.322 180.73C395.002 180.79 394.922 181.1 395.252 181.21C395.534 181.288 395.803 181.406 396.052 181.56C396.1 181.607 396.136 181.666 396.157 181.73C396.178 181.795 396.183 181.863 396.172 181.93C396.172 182.93 396.172 184.48 396.172 185.33C396.172 185.66 396.062 185.78 395.822 185.84C395.632 185.84 395.482 185.92 395.252 185.95C395.212 186.045 395.192 186.147 395.192 186.25C395.192 186.353 395.212 186.455 395.252 186.55C395.402 186.55 396.182 186.55 396.822 186.55C397.712 186.55 398.162 186.55 398.392 186.55C398.488 186.365 398.513 186.152 398.462 185.95C398.252 185.946 398.044 185.915 397.842 185.86C397.602 185.8 397.532 185.68 397.522 185.4C397.522 184.69 397.522 183.19 397.522 182.17C397.513 182.08 397.522 181.989 397.55 181.903C397.577 181.817 397.622 181.738 397.682 181.67C398.035 181.382 398.476 181.223 398.932 181.22C399.267 181.208 399.596 181.314 399.862 181.52C400.103 181.742 400.255 182.044 400.292 182.37C400.352 182.95 400.292 184.09 400.292 185.08C400.292 185.61 400.292 185.75 400.042 185.82C399.844 185.884 399.639 185.924 399.432 185.94C399.39 186.034 399.368 186.137 399.368 186.24C399.368 186.343 399.39 186.446 399.432 186.54C399.822 186.54 400.272 186.54 400.942 186.54C401.772 186.54 402.312 186.54 402.532 186.54C402.589 186.351 402.589 186.149 402.532 185.96L402.562 185.87ZM406.262 180.78C405.552 180.78 405.112 181.33 405.112 182.19C405.112 183.05 405.502 184.07 406.592 184.07C406.844 184.061 407.083 183.958 407.262 183.78C407.559 183.437 407.712 182.993 407.692 182.54C407.692 181.43 407.142 180.76 406.232 180.76L406.262 180.78ZM406.172 186.71C405.968 186.707 405.768 186.759 405.592 186.86C405.032 187.22 404.772 187.57 404.772 187.98C404.764 188.172 404.803 188.363 404.885 188.537C404.966 188.711 405.089 188.863 405.242 188.98C405.702 189.331 406.274 189.505 406.852 189.47C408.222 189.47 408.852 188.74 408.852 188.01C408.857 187.779 408.783 187.553 408.64 187.371C408.498 187.188 408.297 187.061 408.072 187.01C407.467 186.821 406.834 186.74 406.202 186.77L406.172 186.71ZM406.262 190.19C405.576 190.228 404.899 190.031 404.342 189.63C404.133 189.474 403.962 189.274 403.839 189.044C403.716 188.814 403.645 188.56 403.632 188.3C403.64 188.052 403.736 187.815 403.902 187.63C404.274 187.253 404.686 186.918 405.132 186.63C405.131 186.615 405.126 186.6 405.117 186.588C405.108 186.575 405.096 186.566 405.082 186.56C404.878 186.503 404.692 186.397 404.54 186.25C404.388 186.104 404.275 185.921 404.212 185.72C404.191 185.678 404.187 185.628 404.202 185.584C404.217 185.539 404.249 185.501 404.292 185.48C404.382 185.41 404.522 185.33 404.662 185.24C404.876 185.115 405.083 184.978 405.282 184.83C405.289 184.818 405.292 184.804 405.292 184.79C405.292 184.776 405.289 184.762 405.282 184.75C405.282 184.75 405.282 184.7 405.222 184.69C404.79 184.556 404.416 184.279 404.162 183.905C403.908 183.53 403.788 183.081 403.822 182.63C403.813 182.3 403.886 181.973 404.034 181.678C404.182 181.383 404.401 181.13 404.672 180.94C405.251 180.559 405.92 180.335 406.612 180.29C407.117 180.306 407.615 180.414 408.082 180.61C408.362 180.703 408.656 180.747 408.952 180.74C409.124 180.754 409.296 180.731 409.459 180.673C409.621 180.614 409.769 180.521 409.892 180.4C409.925 180.483 409.942 180.571 409.942 180.66C409.955 180.88 409.895 181.098 409.772 181.28C409.697 181.362 409.606 181.427 409.504 181.47C409.402 181.513 409.292 181.534 409.182 181.53H409.262C409.144 181.523 409.027 181.506 408.912 181.48H408.862C408.862 181.48 408.862 181.53 408.862 181.57C408.862 181.69 408.942 182.05 408.942 182.15C408.971 182.524 408.902 182.9 408.743 183.24C408.583 183.58 408.338 183.873 408.032 184.09C407.573 184.43 407.03 184.637 406.462 184.69H406.272H406.082C405.972 184.69 405.712 184.85 405.712 185.08C405.712 185.31 405.832 185.52 406.402 185.56H406.782C407.509 185.58 408.232 185.671 408.942 185.83C409.237 185.933 409.493 186.127 409.673 186.383C409.852 186.64 409.946 186.947 409.942 187.26C409.888 187.81 409.683 188.335 409.349 188.776C409.015 189.218 408.566 189.558 408.052 189.76C407.492 190.011 406.885 190.141 406.272 190.14L406.262 190.19ZM413.912 180.78C413.657 180.773 413.406 180.843 413.192 180.98C412.906 181.2 412.682 181.492 412.544 181.825C412.405 182.158 412.356 182.522 412.402 182.88C412.402 184.64 413.282 185.88 414.542 185.88C414.881 185.894 415.213 185.78 415.472 185.56C415.686 185.319 415.85 185.037 415.951 184.731C416.052 184.425 416.09 184.101 416.062 183.78C416.062 182.03 415.192 180.87 413.912 180.87V180.78ZM414.152 186.52C413.728 186.534 413.307 186.459 412.915 186.298C412.522 186.138 412.169 185.896 411.877 185.589C411.585 185.282 411.361 184.916 411.221 184.517C411.08 184.117 411.026 183.692 411.062 183.27C411.054 182.777 411.171 182.291 411.401 181.855C411.632 181.42 411.969 181.05 412.382 180.78C413.004 180.403 413.714 180.196 414.442 180.18C414.84 180.161 415.239 180.226 415.611 180.371C415.984 180.515 416.322 180.735 416.604 181.018C416.886 181.3 417.107 181.638 417.251 182.01C417.395 182.383 417.46 182.781 417.442 183.18C417.473 183.727 417.359 184.272 417.111 184.76C416.864 185.248 416.491 185.662 416.032 185.96C415.481 186.314 414.846 186.514 414.192 186.54L414.152 186.52ZM390.262 180.78C390.007 180.772 389.756 180.841 389.542 180.98C389.252 181.198 389.026 181.488 388.885 181.822C388.745 182.156 388.695 182.521 388.742 182.88C388.742 184.64 389.632 185.88 390.892 185.88C391.228 185.896 391.557 185.781 391.812 185.56C392.037 185.31 392.206 185.015 392.308 184.694C392.41 184.373 392.442 184.034 392.402 183.7C392.402 181.95 391.552 180.79 390.262 180.79V180.78ZM390.502 186.52C390.077 186.536 389.655 186.461 389.261 186.301C388.868 186.141 388.513 185.9 388.22 185.593C387.927 185.285 387.703 184.92 387.562 184.519C387.42 184.119 387.366 183.693 387.402 183.27C387.396 182.777 387.514 182.29 387.747 181.854C387.979 181.419 388.318 181.049 388.732 180.78C389.336 180.411 390.024 180.204 390.732 180.18C391.13 180.161 391.529 180.226 391.901 180.371C392.274 180.515 392.612 180.735 392.894 181.018C393.176 181.3 393.397 181.638 393.541 182.01C393.685 182.383 393.75 182.781 393.732 183.18C393.761 183.726 393.646 184.271 393.399 184.759C393.151 185.247 392.78 185.661 392.322 185.96C391.772 186.317 391.136 186.517 390.482 186.54L390.502 186.52ZM375.172 186.38C375.148 186.278 375.148 186.172 375.172 186.07C375.16 186.004 375.16 185.936 375.172 185.87C375.371 185.843 375.568 185.803 375.762 185.75C376.032 185.69 376.142 185.54 376.152 185.2C376.152 184.4 376.152 182.87 376.152 181.81C376.161 181.741 376.152 181.67 376.126 181.605C376.1 181.54 376.057 181.483 376.002 181.44C375.756 181.281 375.485 181.163 375.202 181.09C375.082 181.09 375.002 180.98 375.012 180.9C375.022 180.82 375.092 180.73 375.272 180.7C375.954 180.596 376.625 180.422 377.272 180.18C377.312 180.242 377.333 180.316 377.332 180.39V180.54C377.332 180.69 377.332 180.86 377.332 181.04C377.332 181.22 377.392 181.13 377.442 181.13C377.468 181.138 377.496 181.138 377.522 181.13C378.084 180.636 378.78 180.319 379.522 180.22C379.848 180.222 380.168 180.318 380.442 180.495C380.716 180.672 380.935 180.923 381.072 181.22C381.082 181.238 381.096 181.252 381.114 181.263C381.131 181.273 381.151 181.279 381.172 181.28C381.184 181.286 381.198 181.288 381.212 181.288C381.225 181.288 381.239 181.286 381.252 181.28C381.837 180.746 382.568 180.398 383.352 180.28C384.602 180.28 385.352 181.21 385.352 182.78C385.352 183.22 385.352 183.78 385.352 184.32C385.352 184.86 385.352 185.22 385.352 185.52C385.362 185.59 385.389 185.657 385.431 185.715C385.473 185.772 385.528 185.818 385.592 185.85C385.842 185.945 386.105 186.005 386.372 186.03C386.39 186.204 386.362 186.38 386.292 186.54H385.962C385.702 186.54 385.342 186.54 384.962 186.54C384.132 186.54 383.702 186.54 383.282 186.54C383.252 186.371 383.252 186.199 383.282 186.03C383.454 186.001 383.624 185.961 383.792 185.91C384.062 185.83 384.132 185.71 384.142 185.36C384.152 185.01 384.202 182.94 384.142 182.36C384.102 182.031 383.94 181.73 383.688 181.515C383.436 181.3 383.112 181.188 382.782 181.2C382.281 181.224 381.802 181.406 381.412 181.72C381.398 181.762 381.398 181.808 381.412 181.85C381.442 182.216 381.442 182.584 381.412 182.95V183.78C381.412 184.38 381.412 184.94 381.412 185.37C381.403 185.467 381.43 185.565 381.49 185.642C381.549 185.72 381.635 185.773 381.732 185.79H381.932L382.362 185.88C382.397 186.004 382.397 186.136 382.362 186.26C382.362 186.34 382.362 186.38 382.302 186.39H380.702H379.262C379.241 186.305 379.241 186.215 379.262 186.13C379.252 186.043 379.269 185.956 379.312 185.88H379.502L379.932 185.8C380.162 185.73 380.242 185.61 380.252 185.31C380.317 184.288 380.317 183.262 380.252 182.24C380.224 181.914 380.071 181.611 379.825 181.395C379.579 181.179 379.259 181.066 378.932 181.08C378.433 181.112 377.956 181.293 377.562 181.6C377.484 181.685 377.442 181.795 377.442 181.91V182.78C377.442 183.78 377.442 184.95 377.442 185.47C377.439 185.574 377.475 185.675 377.544 185.753C377.612 185.831 377.708 185.88 377.812 185.89C377.882 185.89 377.992 185.89 378.122 185.89H378.362C378.406 186.057 378.406 186.233 378.362 186.4H377.882C377.602 186.4 377.242 186.4 376.882 186.4C376.522 186.4 376.082 186.4 375.812 186.4C375.645 186.386 375.478 186.386 375.312 186.4L375.172 186.38Z" fill="white"/>
<path fill-rule="evenodd" clip-rule="evenodd" d="M432.262 177.78C432.192 177.78 432.122 177.94 432.122 178.02C432.122 178.56 432.122 180.02 432.122 180.94C432.125 180.96 432.135 180.978 432.149 180.992C432.164 181.007 432.182 181.016 432.202 181.02C432.402 181.02 432.882 181.02 433.302 181.02C433.672 181.039 434.042 180.985 434.392 180.86C434.626 180.728 434.819 180.532 434.946 180.295C435.074 180.057 435.131 179.789 435.112 179.52C435.112 178.22 434.192 177.72 432.842 177.72C432.656 177.697 432.468 177.697 432.282 177.72L432.262 177.78ZM435.722 183.78C435.722 182.45 434.722 181.72 432.972 181.72C432.712 181.705 432.451 181.705 432.192 181.72C432.192 181.72 432.102 181.72 432.102 181.8C432.102 182.8 432.102 184.27 432.102 184.86C432.121 185.004 432.17 185.142 432.246 185.266C432.322 185.39 432.422 185.497 432.542 185.58C432.917 185.71 433.315 185.765 433.712 185.74C433.981 185.766 434.253 185.733 434.507 185.642C434.762 185.55 434.993 185.404 435.184 185.213C435.376 185.021 435.522 184.79 435.613 184.536C435.704 184.281 435.738 184.009 435.712 183.74L435.722 183.78ZM429.522 177.05C429.652 177.05 430.062 177.05 431.092 177.05C432.122 177.05 432.852 177.05 433.802 177.05C434.962 177.05 436.572 177.47 436.572 179.21C436.552 179.611 436.418 179.998 436.186 180.326C435.954 180.654 435.633 180.908 435.262 181.06C435.831 181.129 436.357 181.398 436.745 181.819C437.134 182.241 437.36 182.787 437.382 183.36C437.363 183.95 437.16 184.518 436.801 184.987C436.443 185.455 435.946 185.799 435.382 185.97C434.585 186.275 433.735 186.418 432.882 186.39C432.202 186.39 430.362 186.31 429.342 186.33C429.242 186.33 429.442 185.81 429.532 185.73C429.762 185.727 429.992 185.69 430.212 185.62C430.582 185.53 430.622 185.42 430.672 184.87C430.722 184.32 430.672 182.74 430.672 181.56C430.672 179.94 430.672 178.84 430.672 178.3C430.672 177.76 430.512 177.75 430.212 177.67L429.302 177.54C429.232 177.47 429.462 177.01 429.542 176.96L429.522 177.05ZM421.782 185.39C422.242 185.657 422.771 185.782 423.302 185.75C424.087 185.787 424.855 185.514 425.442 184.99C425.873 184.579 426.208 184.079 426.424 183.524C426.64 182.969 426.731 182.374 426.692 181.78C426.735 181.097 426.595 180.415 426.285 179.805C425.976 179.195 425.508 178.678 424.932 178.31C424.164 177.88 423.29 177.676 422.412 177.72C422.158 177.703 421.904 177.734 421.662 177.81C421.596 177.868 421.55 177.945 421.532 178.03C421.532 178.29 421.532 180.36 421.532 181.57C421.532 182.78 421.532 184.57 421.532 184.76C421.53 184.881 421.554 185.002 421.605 185.113C421.655 185.223 421.729 185.321 421.822 185.4L421.782 185.39ZM418.782 177.05C419.032 177.05 420.012 177.05 420.482 177.05C421.332 177.05 421.932 177.05 423.482 177.05C424.656 176.983 425.815 177.338 426.752 178.05C427.246 178.473 427.638 179.002 427.899 179.598C428.161 180.193 428.284 180.84 428.262 181.49C428.297 182.236 428.147 182.98 427.824 183.653C427.501 184.327 427.016 184.91 426.412 185.35C425.282 186.125 423.93 186.508 422.562 186.44H418.782C418.722 186.32 418.892 185.85 419.002 185.83C419.21 185.823 419.416 185.783 419.612 185.71C419.902 185.6 419.952 185.46 419.992 184.96C419.992 184.04 419.992 182.96 419.992 181.66C419.992 180.76 419.992 179.01 419.992 178.44C419.992 177.87 419.752 177.85 419.352 177.77C419.152 177.77 418.882 177.68 418.512 177.64C418.452 177.55 418.692 177.13 418.762 177.05H418.782Z" fill="#8E724F"/>
<path fill-rule="evenodd" clip-rule="evenodd" d="M368.122 189.64L367.572 189.45C367.572 189.45 367.642 186.65 366.632 186.45C365.962 185.67 366.742 153.45 369.152 186.34C368.684 186.572 368.325 186.977 368.152 187.47C368.052 188.189 368.032 188.917 368.092 189.64H368.122Z" fill="white"/>
<path fill-rule="evenodd" clip-rule="evenodd" d="M368.122 189.64L367.572 189.45C367.572 189.45 367.642 186.65 366.632 186.45C365.962 185.67 366.742 153.45 369.152 186.34C368.684 186.572 368.325 186.977 368.152 187.47C368.052 188.189 368.032 188.917 368.092 189.64H368.122Z" fill="#A5A284"/>
<path fill-rule="evenodd" clip-rule="evenodd" d="M368.422 186.93C369.896 185.821 371.025 184.316 371.677 182.589C372.329 180.863 372.476 178.987 372.102 177.18C371.022 172.4 368.462 170.83 368.182 170.18C367.941 169.807 367.737 169.412 367.572 169L367.772 182.31C367.772 182.31 367.362 186.39 368.422 186.88" fill="white"/>
<path fill-rule="evenodd" clip-rule="evenodd" d="M368.422 186.93C369.896 185.821 371.025 184.316 371.677 182.589C372.329 180.863 372.476 178.987 372.102 177.18C371.022 172.4 368.462 170.83 368.182 170.18C367.941 169.807 367.737 169.412 367.572 169L367.772 182.31C367.772 182.31 367.362 186.39 368.422 186.88" fill="#499D49"/>
<path fill-rule="evenodd" clip-rule="evenodd" d="M367.262 187.11C367.262 187.11 362.742 184.02 363.012 178.59C363.035 176.953 363.409 175.339 364.11 173.859C364.81 172.379 365.82 171.066 367.072 170.01C367.217 169.888 367.332 169.735 367.409 169.562C367.485 169.388 367.52 169.199 367.512 169.01C367.802 169.61 367.742 178.01 367.782 179.01C367.949 181.721 367.774 184.443 367.262 187.11Z" fill="white"/>
<path fill-rule="evenodd" clip-rule="evenodd" d="M367.262 187.11C367.262 187.11 362.742 184.02 363.012 178.59C363.035 176.953 363.409 175.339 364.11 173.859C364.81 172.379 365.82 171.066 367.072 170.01C367.217 169.888 367.332 169.735 367.409 169.562C367.485 169.388 367.52 169.199 367.512 169.01C367.802 169.61 367.742 178.01 367.782 179.01C367.949 181.721 367.774 184.443 367.262 187.11Z" fill="#58AA50"/>
<path d="M452 150.853L452.225 150.546L462.825 130.437V130.229L458.156 121.45C458.043 121.253 457.859 121.107 457.641 121.04C457.424 120.973 457.189 120.991 456.985 121.089C456.867 121.154 456.766 121.245 456.688 121.354C456.61 121.463 456.557 121.588 456.534 121.72L452 150.853Z" fill="#FEC24B"/>
<path d="M452.135 150.618L452.306 150.285L462.789 130.392L458.093 121.585C458.047 121.492 457.983 121.408 457.905 121.339C457.826 121.271 457.734 121.219 457.635 121.186C457.536 121.153 457.432 121.141 457.328 121.149C457.224 121.157 457.122 121.186 457.03 121.234C456.91 121.292 456.808 121.379 456.732 121.488C456.656 121.597 456.61 121.724 456.597 121.856L452.135 150.618Z" fill="#FAA61D"/>
<path d="M466.251 136.863L469.73 133.258L466.251 126.624C466.138 126.414 465.947 126.257 465.719 126.188C465.49 126.119 465.244 126.143 465.034 126.254C464.882 126.342 464.757 126.47 464.673 126.624L462.807 130.166V130.473L466.251 136.863Z" fill="#F3BD63"/>
<path d="M466.206 136.719L469.586 133.258L466.206 126.804C466.168 126.709 466.112 126.623 466.041 126.55C465.969 126.477 465.884 126.418 465.791 126.378C465.697 126.338 465.596 126.317 465.494 126.316C465.392 126.314 465.291 126.333 465.196 126.372C465.018 126.438 464.873 126.57 464.79 126.741L462.916 130.347L462.862 130.536L466.206 136.719Z" fill="#FAA51A"/>
<path d="M452 150.853L452.108 150.754L452.478 150.6L466.034 137.098L466.206 136.629L462.825 130.184L452 150.853Z" fill="#F58220"/>
<path d="M466.683 157.667L478.96 150.826L475.454 129.247C475.416 129.028 475.294 128.832 475.113 128.702C474.933 128.573 474.709 128.519 474.489 128.553C474.315 128.581 474.154 128.663 474.029 128.787L452 150.853L464.205 157.667C464.583 157.879 465.01 157.991 465.444 157.991C465.878 157.991 466.305 157.879 466.683 157.667Z" fill="#FCE069"/>
<path d="M478.825 150.763L475.345 129.337C475.339 129.192 475.291 129.052 475.205 128.936C475.119 128.819 475.001 128.73 474.864 128.681C474.728 128.631 474.58 128.624 474.439 128.659C474.299 128.694 474.172 128.77 474.075 128.877L452.135 150.817L464.196 157.55C464.571 157.762 464.995 157.874 465.426 157.874C465.857 157.874 466.281 157.762 466.656 157.55L478.825 150.763Z" fill="#FCCB40"/>
<path d="M466.683 157.46C466.305 157.672 465.878 157.784 465.444 157.784C465.01 157.784 464.583 157.672 464.205 157.46L452.099 150.763L452 150.862L464.205 157.676C464.583 157.888 465.01 158 465.444 158C465.878 158 466.305 157.888 466.683 157.676L478.96 150.835V150.645L466.683 157.46Z" fill="#EEAC38"/>
<path d="M480.398 178.419H466V164.61C465.997 164.449 465.932 164.296 465.819 164.182C465.705 164.068 465.552 164.003 465.391 164C465.294 163.999 465.198 164.023 465.111 164.068C465.025 164.113 464.951 164.178 464.896 164.259L450.932 183.157L450.312 184.026C450.136 184.265 450.03 184.548 450.006 184.844C449.981 185.139 450.039 185.436 450.172 185.701C450.306 185.966 450.511 186.189 450.763 186.344C451.016 186.499 451.306 186.581 451.602 186.581H466V200.39C465.999 200.47 466.013 200.55 466.044 200.625C466.074 200.699 466.118 200.767 466.175 200.824C466.232 200.881 466.3 200.926 466.374 200.956C466.449 200.986 466.529 201.001 466.609 201C466.704 201 466.797 200.977 466.881 200.934C466.966 200.891 467.039 200.829 467.094 200.752L481.069 181.853L481.688 180.985C481.939 180.642 482.045 180.214 481.983 179.794C481.921 179.374 481.696 178.995 481.358 178.74C481.08 178.533 480.744 178.421 480.398 178.419Z" fill="#2AE487"/>
<path d="M420.938 148.559C420.796 148.156 420.538 147.801 420.196 147.533C419.854 147.265 419.44 147.096 419.003 147.045C418.485 146.987 417.96 147.015 417.451 147.129C416.664 147.297 415.864 147.4 415.06 147.439C417.221 143.929 418.88 140.152 419.989 136.211C421.604 130.157 420.741 127.391 419.731 126.14C418.386 124.5 416.667 123.183 414.709 122.292C412.75 121.401 410.605 120.96 408.442 121.003C406.456 120.988 404.479 121.257 402.575 121.801C401.443 121.615 400.298 121.512 399.149 121.492C397.058 121.417 394.986 121.913 393.172 122.922C391.794 122.469 390.381 122.126 388.945 121.897C384.816 121.241 381.489 121.754 379.086 123.41C376.14 125.425 374.772 128.917 375.031 133.804C375.48 137.444 376.28 141.035 377.422 144.531C378.073 146.72 378.931 148.846 379.985 150.883C381.218 153.267 382.61 154.578 384.138 155.067C384.828 155.292 385.569 155.332 386.28 155.183C386.992 155.034 387.649 154.702 388.181 154.22C388.421 154.503 388.709 154.744 389.031 154.936C389.528 155.231 390.068 155.452 390.633 155.591C392.489 156.088 394.462 155.971 396.241 155.257C396.241 155.543 396.241 155.818 396.241 156.044C396.241 156.271 396.241 156.795 396.241 157.141C396.219 158.974 396.472 160.801 396.993 162.564L397.091 162.85C397.385 163.931 397.962 164.92 398.767 165.722C399.736 166.581 401.015 167.039 402.329 166.997C402.884 166.996 403.438 166.936 403.98 166.819C405.013 166.692 406.009 166.368 406.911 165.864C407.812 165.361 408.601 164.688 409.23 163.887C410.611 161.98 411.276 159.119 411.399 154.626C411.393 154.503 411.393 154.379 411.399 154.256V154.018H411.72H411.806C413.643 154.097 415.476 153.792 417.179 153.124C418.252 152.635 421.69 150.883 420.877 148.511" fill="#303888"/>
<path d="M417.808 149.024C412.447 150.097 412.077 148.333 412.077 148.333C417.746 140.192 420.113 129.859 418.067 127.332C412.484 120.431 402.822 123.697 402.662 123.756C401.481 123.525 400.28 123.401 399.075 123.387C397.043 123.291 395.038 123.872 393.394 125.031C393.394 125.031 376.14 118.166 376.953 133.673C377.126 136.974 381.883 158.642 387.478 152.099C389.536 149.715 391.521 147.677 391.521 147.677C392.525 148.328 393.73 148.626 394.934 148.523L395.021 148.44C394.979 148.748 394.979 149.061 395.021 149.37C393.566 150.943 393.998 151.217 391.089 151.753C388.181 152.29 389.857 153.374 391.003 153.648C392.198 154.025 393.485 154.025 394.681 153.651C395.876 153.276 396.918 152.545 397.658 151.563L397.572 151.896C398.139 152.337 398.545 154.757 398.471 156.95C398.286 158.586 398.402 160.24 398.817 161.837C399.26 163.028 399.704 165.663 403.512 164.864C406.704 164.208 408.343 162.48 408.577 159.644C408.737 157.617 409.107 157.915 409.132 156.068L409.428 155.21C409.773 152.468 409.428 151.575 411.449 151.992H411.917C413.436 152.051 414.952 151.804 416.366 151.265C418.757 150.204 420.174 148.404 417.808 148.881" fill="#356892"/>
<path d="M394.355 135.186C393.966 135.099 393.558 135.154 393.209 135.341C393.118 135.408 393.056 135.506 393.036 135.615C393.037 135.803 393.107 135.985 393.234 136.128C393.464 136.428 393.803 136.632 394.183 136.7H394.343C394.593 136.702 394.838 136.63 395.045 136.493C395.252 136.357 395.411 136.163 395.501 135.937C395.563 135.52 394.947 135.258 394.355 135.174M410.377 135.174C410.377 134.853 409.736 134.757 409.144 134.841C408.553 134.924 408.047 135.15 408.084 135.472C408.172 135.674 408.319 135.846 408.508 135.967C408.696 136.088 408.918 136.152 409.144 136.152H409.28C409.575 136.105 409.845 135.962 410.044 135.746C410.213 135.603 410.319 135.403 410.34 135.186" fill="white"/>
<path d="M419.607 148.905C419.398 148.297 418.732 148.106 417.648 148.333C414.394 148.976 413.223 148.523 412.841 148.249C415.417 144.428 417.351 140.236 418.572 135.83C419.066 134.083 419.351 132.288 419.422 130.478C419.539 129.228 419.237 127.974 418.56 126.903C417.334 125.414 415.767 124.221 413.984 123.416C412.201 122.612 410.249 122.218 408.281 122.266C406.262 122.236 404.253 122.542 402.341 123.172C401.248 122.911 400.127 122.771 399.001 122.755C396.973 122.666 394.967 123.2 393.271 124.281C391.759 123.745 390.2 123.346 388.612 123.089C384.841 122.505 381.846 122.946 379.714 124.412C377.151 126.164 376.017 129.286 376.202 133.696C376.657 137.234 377.44 140.724 378.543 144.125C380.355 149.894 382.339 153.148 384.41 153.827C384.681 153.91 384.963 153.954 385.248 153.958C385.774 153.926 386.286 153.778 386.745 153.526C387.204 153.274 387.598 152.925 387.897 152.504C389.08 151.138 390.313 149.803 391.595 148.499C392.409 148.917 393.311 149.149 394.232 149.179V149.25L393.764 149.799C393.123 150.585 393 150.752 390.941 151.157C390.362 151.277 388.822 151.575 388.797 152.623C388.772 153.672 390.621 154.256 390.83 154.304C391.523 154.478 392.235 154.57 392.95 154.578C394.518 154.607 396.039 154.058 397.202 153.041C397.202 157.129 397.35 161.157 397.855 162.373C398.131 163.352 398.728 164.218 399.558 164.839C400.387 165.46 401.403 165.804 402.452 165.817C402.975 165.811 403.495 165.751 404.005 165.639C407.357 164.947 408.811 163.517 409.366 160.371C409.674 158.678 410.192 154.661 410.426 152.492C411.04 152.656 411.675 152.732 412.311 152.719C413.781 152.732 415.238 152.464 416.6 151.932C417.833 151.396 419.989 150.061 419.595 148.905H419.607ZM411.634 134.352C411.612 134.963 411.546 135.573 411.436 136.175C411.312 136.881 411.234 137.594 411.202 138.309C411.2 139.107 411.258 139.903 411.375 140.693C411.742 142.332 411.605 144.039 410.98 145.603C410.853 145.375 410.738 145.14 410.635 144.9C410.537 144.674 410.315 144.304 410.019 143.78C408.861 141.777 406.162 137.081 407.554 135.162C407.973 134.602 409.021 133.971 411.646 134.328L411.634 134.352ZM408.442 123.554C410.182 123.52 411.907 123.877 413.481 124.597C415.055 125.316 416.435 126.379 417.512 127.701C419.164 129.739 417.34 139.06 412.065 147.093L411.905 146.89L411.831 146.807C412.881 144.896 413.187 142.684 412.693 140.574C412.582 139.836 412.528 139.091 412.533 138.345C412.563 137.681 412.637 137.02 412.755 136.366C412.899 135.555 412.969 134.734 412.965 133.911C412.984 133.797 412.984 133.68 412.965 133.565C412.403 131.37 411.29 129.344 409.723 127.666C408.316 126.055 406.551 124.771 404.56 123.911C405.831 123.649 407.13 123.529 408.429 123.554H408.442ZM386.874 151.694C385.815 152.886 385.075 152.695 384.829 152.611C383.251 152.099 381.427 148.881 379.813 143.768C378.747 140.466 377.985 137.08 377.533 133.649C377.336 129.704 378.321 126.95 380.478 125.472C383.978 123.089 389.746 124.507 392.063 125.246L391.964 125.329C388.156 129.048 388.267 135.389 388.267 135.77C388.267 135.925 388.267 136.14 388.267 136.426C388.403 138.194 388.358 139.97 388.131 141.73C387.973 142.738 388.054 143.768 388.371 144.741C388.687 145.714 389.229 146.604 389.955 147.343L390.424 147.772C389.771 148.44 388.366 149.942 386.85 151.694H386.874ZM390.941 146.449C390.355 145.851 389.919 145.13 389.664 144.343C389.41 143.556 389.345 142.723 389.475 141.908C389.71 140.066 389.759 138.206 389.623 136.354C389.623 136.199 389.623 136.056 389.623 135.949C391.038 134.924 392.789 134.428 394.552 134.555C394.96 134.644 395.328 134.854 395.607 135.155C395.885 135.456 396.059 135.834 396.105 136.235C397.202 141.146 396.253 143.196 395.489 144.84C395.329 145.174 395.181 145.496 395.058 145.83L394.959 146.08C394.707 146.673 394.497 147.283 394.331 147.904C393.691 147.896 393.061 147.763 392.476 147.513C391.891 147.263 391.365 146.901 390.929 146.449H390.941ZM391.126 153.064C390.811 152.991 390.511 152.866 390.239 152.695C390.544 152.574 390.863 152.486 391.188 152.433C393.653 151.944 393.973 151.61 394.787 150.609C394.971 150.383 395.181 150.12 395.477 149.811C395.908 149.334 396.105 149.417 396.475 149.56C396.643 149.651 396.791 149.774 396.91 149.922C397.029 150.069 397.115 150.238 397.165 150.418C397.21 150.552 397.226 150.693 397.211 150.833C397.196 150.972 397.151 151.107 397.079 151.229C396.416 152.105 395.48 152.752 394.409 153.076C393.337 153.4 392.187 153.383 391.126 153.029V153.064ZM403.746 164.423C400.788 165.031 399.753 163.577 399.063 161.908C398.619 160.835 398.397 155.949 398.558 150.657C398.569 150.586 398.569 150.513 398.558 150.442C398.545 150.317 398.52 150.193 398.484 150.073C398.384 149.702 398.2 149.357 397.947 149.062C397.693 148.768 397.376 148.531 397.017 148.368C396.6 148.173 396.127 148.118 395.674 148.213C395.833 147.643 396.027 147.082 396.253 146.533L396.29 146.271C396.401 145.985 396.537 145.687 396.684 145.365C397.486 143.649 398.582 141.289 397.399 135.961C397.322 135.508 397.15 135.075 396.893 134.689C396.637 134.303 396.302 133.972 395.908 133.715C395.515 133.458 395.072 133.282 394.605 133.197C394.139 133.112 393.66 133.119 393.197 133.22C392.08 133.365 390.997 133.692 389.992 134.185L389.623 134.376C389.795 132.373 390.448 128.607 392.889 126.235C393.686 125.482 394.638 124.899 395.681 124.521C396.725 124.143 397.839 123.98 398.952 124.042C400.839 124.054 402.7 124.467 404.404 125.252C406.108 126.037 407.612 127.174 408.811 128.583C409.979 129.899 410.889 131.41 411.498 133.041C409.033 132.791 407.32 133.267 406.47 134.447C404.597 137.034 407.48 142.028 408.873 144.435C409.119 144.876 409.341 145.258 409.415 145.413C409.781 146.241 410.271 147.012 410.869 147.701C411.005 147.856 411.128 148.011 411.227 148.142C410.475 148.356 409.119 148.833 409.243 151.265C409.144 152.457 408.442 158.166 408.084 160.18C407.604 162.838 406.593 163.827 403.758 164.423H403.746ZM416.07 150.8C415.025 151.203 413.916 151.429 412.792 151.467C412.045 151.567 411.283 151.473 410.586 151.193C410.512 149.679 411.091 149.525 411.708 149.358L411.991 149.274L412.176 149.405C413.26 150.097 415.195 150.168 417.931 149.62C417.366 150.109 416.725 150.511 416.033 150.812L416.07 150.8Z" fill="white"/>
<path d="M323 65L325.2 89.6L335.05 92.32L344.93 89.61L347.13 65H323ZM342.55 70.83L342.41 72.4L342.35 73.12H330.8L331.08 76.2H342.08L342 76.96L341.29 84.88L341.24 85.38L335.05 87.08L328.86 85.45L328.44 80.79H331.44L331.66 83.19L335.01 84.09V83.97L338.38 83.12L338.74 79.26H328.32L327.58 70.89L327.5 70.04H342.63L342.55 70.83Z" fill="#E44F26"/>
<path d="M323 27L325.18 51.5L334.97 54.23L344.79 51.49L346.97 27H323ZM342.47 32.62L341.74 40.78V40.92L341.23 46.63L341.17 47.14L335.02 48.84L328.88 47.13L328.47 42.44H331.47L331.69 44.84L335.03 45.75L338.38 44.83L338.73 40.92H331.73L331.67 40.26L331.54 38.72L331.47 37.88H339.01L339.28 34.88H327.74L327.68 34.22L327.55 32.67L327.48 31.84H342.48L342.47 32.62Z" fill="#1673B6"/>
<path fill-rule="evenodd" clip-rule="evenodd" d="M499.165 164.111C499.057 163.937 499 163.736 499 163.531C499 163.326 499.057 163.125 499.165 162.951L507.405 149.521C507.51 149.352 507.657 149.215 507.833 149.124C508.008 149.033 508.205 148.991 508.403 149.002C508.601 149.013 508.792 149.077 508.956 149.188C509.12 149.299 509.251 149.452 509.335 149.631L516.855 165.951C516.922 166.093 516.958 166.248 516.959 166.406C516.96 166.563 516.927 166.719 516.863 166.862C516.798 167.006 516.703 167.133 516.585 167.237C516.466 167.34 516.326 167.417 516.175 167.461L504.475 170.971C504.247 171.039 504.002 171.031 503.778 170.948C503.555 170.865 503.364 170.711 503.235 170.511L499.165 164.111ZM508.345 153.451C508.361 153.364 508.404 153.285 508.468 153.224C508.532 153.164 508.614 153.126 508.702 153.116C508.789 153.106 508.878 153.124 508.954 153.168C509.03 153.212 509.09 153.28 509.125 153.361L514.305 165.361C514.329 165.414 514.342 165.471 514.342 165.529C514.342 165.587 514.33 165.644 514.306 165.697C514.283 165.75 514.248 165.797 514.205 165.836C514.162 165.874 514.111 165.903 514.055 165.921L505.965 168.331C505.898 168.351 505.826 168.353 505.758 168.338C505.689 168.322 505.625 168.289 505.573 168.242C505.521 168.195 505.482 168.135 505.459 168.068C505.437 168.001 505.432 167.93 505.445 167.861L508.345 153.451ZM538.415 165.841H540.715V157.421H538.415V165.841ZM538.315 155.241C538.315 154.491 538.735 154.121 539.565 154.121C540.395 154.121 540.825 154.491 540.825 155.241C540.833 155.394 540.808 155.547 540.753 155.69C540.698 155.832 540.614 155.962 540.505 156.071C540.243 156.289 539.906 156.397 539.565 156.371C538.735 156.371 538.315 155.991 538.315 155.241ZM569.855 161.941H568.965C568.445 161.922 567.93 162.047 567.475 162.301C567.314 162.411 567.184 162.561 567.099 162.736C567.013 162.911 566.974 163.106 566.985 163.301C566.985 163.951 567.355 164.301 568.095 164.301C568.329 164.313 568.562 164.279 568.782 164.2C569.002 164.121 569.203 163.999 569.375 163.841C569.537 163.683 569.663 163.492 569.746 163.282C569.829 163.072 569.866 162.846 569.855 162.621V161.941ZM570.535 165.841L570.085 164.701H570.055C569.741 165.121 569.334 165.464 568.865 165.701C568.358 165.907 567.813 166.003 567.265 165.981C566.917 166 566.568 165.949 566.24 165.831C565.912 165.712 565.611 165.528 565.355 165.291C565.107 165.024 564.916 164.708 564.796 164.364C564.675 164.02 564.628 163.654 564.655 163.291C564.622 162.904 564.691 162.515 564.856 162.164C565.021 161.813 565.276 161.512 565.595 161.291C566.456 160.799 567.435 160.554 568.425 160.581H569.885V160.211C569.909 160.034 569.892 159.855 569.834 159.686C569.776 159.518 569.68 159.365 569.553 159.241C569.425 159.117 569.27 159.024 569.101 158.97C568.931 158.916 568.751 158.903 568.575 158.931C567.748 158.968 566.938 159.175 566.195 159.541L565.435 157.981C566.436 157.472 567.543 157.212 568.665 157.221C569.592 157.158 570.511 157.42 571.265 157.961C571.578 158.241 571.823 158.59 571.979 158.98C572.135 159.371 572.199 159.792 572.165 160.211V165.821L570.535 165.841ZM557.915 165.841H555.615V160.921C555.649 160.444 555.541 159.967 555.305 159.551C555.195 159.392 555.043 159.267 554.867 159.188C554.691 159.109 554.497 159.079 554.305 159.101C554.053 159.082 553.8 159.133 553.575 159.248C553.349 159.362 553.159 159.536 553.025 159.751C552.712 160.415 552.575 161.148 552.625 161.881V165.881H550.325V157.461H552.085L552.395 158.531H552.525C552.76 158.136 553.108 157.822 553.525 157.631C553.981 157.402 554.486 157.289 554.995 157.301C555.495 157.242 556.001 157.326 556.454 157.544C556.907 157.762 557.289 158.104 557.555 158.531H557.755C557.991 158.135 558.339 157.819 558.755 157.621C559.222 157.404 559.731 157.294 560.245 157.301C561.037 157.248 561.817 157.51 562.415 158.031C562.961 158.69 563.223 159.539 563.145 160.391V165.881H560.855V160.961C560.886 160.485 560.782 160.01 560.555 159.591C560.445 159.432 560.293 159.307 560.117 159.228C559.941 159.149 559.747 159.119 559.555 159.141C559.312 159.126 559.068 159.173 558.848 159.278C558.627 159.383 558.437 159.542 558.295 159.741C557.971 160.323 557.825 160.987 557.875 161.651L557.915 165.841ZM547.915 165.311C548.219 165.078 548.461 164.773 548.618 164.424C548.775 164.075 548.843 163.693 548.815 163.311C548.827 162.939 548.752 162.569 548.595 162.231C548.44 161.914 548.21 161.64 547.925 161.431C547.475 161.125 546.988 160.876 546.475 160.691C545.977 160.508 545.496 160.284 545.035 160.021C544.939 159.966 544.858 159.888 544.8 159.794C544.742 159.699 544.71 159.591 544.705 159.481C544.705 159.111 545.045 158.931 545.705 158.931C546.088 158.933 546.469 158.99 546.835 159.101C547.195 159.221 547.595 159.371 548.015 159.551L548.705 157.891C547.767 157.451 546.742 157.226 545.705 157.231C544.839 157.176 543.977 157.389 543.235 157.841C542.954 158.033 542.727 158.293 542.575 158.598C542.422 158.902 542.35 159.241 542.365 159.581C542.354 159.958 542.425 160.334 542.575 160.681C542.727 160.997 542.954 161.272 543.235 161.481C543.681 161.785 544.161 162.037 544.665 162.231C545.115 162.421 545.475 162.591 545.755 162.731C545.963 162.832 546.155 162.964 546.325 163.121C546.38 163.18 546.423 163.249 546.45 163.324C546.477 163.4 546.49 163.48 546.485 163.561C546.485 164.041 546.075 164.281 545.235 164.281C544.759 164.269 544.286 164.202 543.825 164.081C543.33 163.957 542.848 163.786 542.385 163.571V165.471C542.774 165.639 543.18 165.763 543.595 165.841C544.114 165.928 544.639 165.968 545.165 165.961C546.125 166.051 547.088 165.822 547.905 165.311H547.915ZM537.205 157.311C536.952 157.257 536.694 157.234 536.435 157.241C535.917 157.236 535.409 157.386 534.975 157.671C534.537 157.959 534.177 158.35 533.925 158.811H533.805L533.465 157.401H531.725V165.821H534.055V161.531C534.041 161.238 534.088 160.946 534.195 160.674C534.302 160.401 534.466 160.155 534.675 159.951C535.151 159.549 535.764 159.349 536.385 159.391C536.614 159.385 536.843 159.408 537.065 159.461L537.205 157.311ZM524.965 159.991H525.735C526.305 160.033 526.873 159.882 527.345 159.561C527.527 159.412 527.67 159.221 527.762 159.006C527.854 158.79 527.893 158.555 527.875 158.321C527.892 158.099 527.862 157.877 527.786 157.668C527.71 157.46 527.591 157.269 527.435 157.111C527.026 156.818 526.527 156.679 526.025 156.721H524.955L524.965 159.991ZM530.235 158.241C530.268 158.748 530.185 159.257 529.992 159.728C529.8 160.199 529.504 160.621 529.125 160.961C528.219 161.643 527.097 161.977 525.965 161.901H524.965V165.821H522.625V154.821H526.145C527.232 154.745 528.312 155.053 529.195 155.691C529.551 156.012 529.829 156.411 530.008 156.857C530.186 157.302 530.261 157.782 530.225 158.261L530.235 158.241Z" fill="#BCD2F2"/>
<path d="M345.45 129H325.86C318.205 129 312 135.205 312 142.86V162.45C312 170.105 318.205 176.31 325.86 176.31H345.45C353.105 176.31 359.31 170.105 359.31 162.45V142.86C359.31 135.205 353.105 129 345.45 129Z" fill="#398CCB"/>
<path fill-rule="evenodd" clip-rule="evenodd" d="M335.6 135.93L342.17 139.72V141.8L350.12 146.39V154.2L352.25 155.44V163.02L345.69 166.81L342.76 165.2L335.68 169.29L328.68 165.23L325.76 166.85L319.2 163.05V155.48L321.25 154.29V146.39L329.03 141.9V139.72L335.6 135.93ZM342.17 143.77V147.3L335.61 151.09L329.04 147.3V143.87L322.97 147.38V153.31L325.77 151.69L332.34 155.48V163.05L330.34 164.2L335.68 167.28L341.06 164.18L339.12 163.05V155.48L345.68 151.69L348.4 153.26V147.38L342.17 143.77ZM340.83 162.08V157.45L344.83 159.76V164.39L340.83 162.08ZM350.55 157.44L346.55 159.76V164.39L350.55 162.07V157.44ZM320.92 162.07V157.44L324.92 159.76V164.38L320.92 162.07ZM330.63 157.44L326.63 159.76V164.38L330.63 162.07V157.44ZM341.68 155.97L345.68 153.66L349.68 155.97L345.68 158.29L341.68 155.97ZM325.76 153.65L321.76 155.97L325.76 158.28L329.76 155.97L325.76 153.65ZM330.76 146.31V141.69L334.76 144V148.62L330.76 146.31ZM340.47 141.69L336.47 144V148.62L340.47 146.31V141.69ZM331.6 140.2L335.6 137.89L339.6 140.2L335.6 142.51L331.6 140.2Z" fill="white"/>
<path d="M282.105 47.0005C280.765 47.0039 279.427 47.1177 278.105 47.3405C274.575 47.9705 273.925 49.2705 273.925 51.6805V54.8605H282.275V55.9305H270.805C269.576 55.9063 268.378 56.3176 267.422 57.0917C266.467 57.8658 265.816 58.9529 265.585 60.1605C264.805 62.9368 264.805 65.8743 265.585 68.6505C266.185 71.1205 267.585 72.8805 270.025 72.8805H272.895V69.0705C272.926 67.6986 273.487 66.3918 274.46 65.4243C275.433 64.4567 276.743 63.9034 278.115 63.8805H286.425C286.979 63.8766 287.526 63.7635 288.036 63.5477C288.546 63.3318 289.009 63.0175 289.397 62.6227C289.785 62.228 290.092 61.7604 290.299 61.247C290.506 60.7335 290.61 60.1842 290.605 59.6305V51.6705C290.531 50.5718 290.071 49.5347 289.306 48.7424C288.541 47.9501 287.521 47.4536 286.425 47.3405C284.997 47.1049 283.552 46.9911 282.105 47.0005ZM277.585 49.5605C277.9 49.5546 278.21 49.6425 278.475 49.8131C278.741 49.9837 278.949 50.2294 279.074 50.5187C279.2 50.8081 279.236 51.1282 279.179 51.4383C279.122 51.7484 278.974 52.0345 278.754 52.2602C278.533 52.486 278.251 52.6412 277.943 52.7062C277.634 52.7711 277.313 52.7428 277.021 52.625C276.728 52.5071 276.477 52.3049 276.3 52.0442C276.123 51.7834 276.027 51.4758 276.025 51.1605C276.022 50.7423 276.185 50.3398 276.477 50.0403C276.769 49.7408 277.167 49.5684 277.585 49.5605Z" fill="url(#paint7_linear_1_11)"/>
<path d="M291.675 55.9305V59.6705C291.66 61.0578 291.108 62.3851 290.134 63.3735C289.161 64.3619 287.842 64.9344 286.455 64.9705H278.115C277.003 64.9914 275.943 65.4467 275.161 66.2391C274.38 67.0314 273.94 68.0979 273.935 69.2105V77.1605C273.935 79.4305 275.935 80.7605 278.115 81.4105C280.831 82.2578 283.74 82.2578 286.455 81.4105C288.555 80.8005 290.635 79.5705 290.635 77.1605V73.9805H282.285V72.9205H294.805C297.235 72.9205 298.135 71.2305 298.985 68.6905C299.839 65.9249 299.839 62.9661 298.985 60.2005C298.385 57.7805 297.235 55.9705 294.805 55.9705L291.675 55.9305ZM286.985 76.0605C287.303 76.0526 287.616 76.1394 287.884 76.3099C288.152 76.4803 288.363 76.7268 288.491 77.0178C288.618 77.3087 288.656 77.6311 288.6 77.9438C288.543 78.2564 288.395 78.5453 288.174 78.7734C287.953 79.0016 287.669 79.1588 287.358 79.225C287.048 79.2911 286.724 79.2633 286.429 79.145C286.135 79.0267 285.882 78.8233 285.703 78.5607C285.524 78.2981 285.427 77.9882 285.425 77.6705C285.421 77.4622 285.458 77.2552 285.535 77.0613C285.611 76.8674 285.725 76.6906 285.87 76.5409C286.015 76.3913 286.188 76.2718 286.38 76.1894C286.571 76.1069 286.777 76.0631 286.985 76.0605Z" fill="url(#paint8_linear_1_11)"/>
<g style="mix-blend-mode:luminosity">
<line x1="142" y1="109" x2="566" y2="109" stroke="url(#paint9_linear_1_11)" stroke-width="2" stroke-dasharray="2 2"/>
</g>
</g>
<defs>
<linearGradient id="paint0_linear_1_11" x1="298.5" y1="0" x2="298.5" y2="219" gradientUnits="userSpaceOnUse">
<stop stop-color="#2C3463"/>
<stop offset="1" stop-color="#1E2549"/>
</linearGradient>
<linearGradient id="paint1_linear_1_11" x1="377.14" y1="36.996" x2="412.506" y2="55.4159" gradientUnits="userSpaceOnUse">
<stop stop-color="#2399BD"/>
<stop offset="1" stop-color="#4FC0AA"/>
</linearGradient>
<linearGradient id="paint2_linear_1_11" x1="457.015" y1="52.5626" x2="449.146" y2="64.0725" gradientUnits="userSpaceOnUse">
<stop stop-color="#428840"/>
<stop offset="0.33" stop-color="#438C41"/>
<stop offset="0.64" stop-color="#429644"/>
<stop offset="0.93" stop-color="#41A948"/>
<stop offset="1" stop-color="#41AF49"/>
</linearGradient>
<linearGradient id="paint3_linear_1_11" x1="452.939" y1="62.4263" x2="471.127" y2="53.6524" gradientUnits="userSpaceOnUse">
<stop offset="0.14" stop-color="#428840"/>
<stop offset="0.4" stop-color="#53A045"/>
<stop offset="0.71" stop-color="#67B848"/>
<stop offset="0.91" stop-color="#6FBF4A"/>
</linearGradient>
<linearGradient id="paint4_linear_1_11" x1="446.862" y1="62.8093" x2="461.748" y2="62.8093" gradientUnits="userSpaceOnUse">
<stop offset="0.09" stop-color="#6FBF4A"/>
<stop offset="0.29" stop-color="#67B848"/>
<stop offset="0.6" stop-color="#53A045"/>
<stop offset="0.86" stop-color="#428840"/>
</linearGradient>
<linearGradient id="paint5_linear_1_11" x1="446.578" y1="64.7814" x2="461.43" y2="64.7814" gradientUnits="userSpaceOnUse">
<stop offset="0.09" stop-color="#6FBF4A"/>
<stop offset="0.29" stop-color="#67B848"/>
<stop offset="0.6" stop-color="#53A045"/>
<stop offset="0.86" stop-color="#428840"/>
</linearGradient>
<linearGradient id="paint6_linear_1_11" x1="463.081" y1="52.7659" x2="459.481" y2="72.5919" gradientUnits="userSpaceOnUse">
<stop stop-color="#428840"/>
<stop offset="0.33" stop-color="#438C41"/>
<stop offset="0.64" stop-color="#429644"/>
<stop offset="0.93" stop-color="#41A948"/>
<stop offset="1" stop-color="#41AF49"/>
</linearGradient>
<linearGradient id="paint7_linear_1_11" x1="262.212" y1="48.3947" x2="281.509" y2="64.7067" gradientUnits="userSpaceOnUse">
<stop stop-color="#5C9FD3"/>
<stop offset="1" stop-color="#316A99"/>
</linearGradient>
<linearGradient id="paint8_linear_1_11" x1="288.576" y1="75.1277" x2="281.622" y2="65.4626" gradientUnits="userSpaceOnUse">
<stop stop-color="#FFD53D"/>
<stop offset="1" stop-color="#FEE875"/>
</linearGradient>
<linearGradient id="paint9_linear_1_11" x1="354" y1="110" x2="354" y2="111" gradientUnits="userSpaceOnUse">
<stop stop-color="white"/>
<stop offset="1" stop-color="white" stop-opacity="0"/>
</linearGradient>
<clipPath id="clip0_1_11">
<rect width="595.07" height="218.25" fill="white"/>
</clipPath>
</defs>
</svg>
